<svg id="Layer_1" data-name="Layer 1" xmlns="http://www.w3.org/2000/svg" viewBox="0 0 5577.96 1121.74"><defs><style>.cls-1{fill:#fff;}</style></defs><path class="cls-1" d="M-869.81,222.21a21.89,21.89,0,0,0-3.18-4.6,94.24,94.24,0,0,0-8.83-7.77,57.83,57.83,0,0,1-8.83-8.48q-9.9-12.71-22.61-17.66a73.58,73.58,0,0,0-26.85-4.94,33.64,33.64,0,0,0-5.3,2.47q-3.18,1.77-3.18,4.59a67.5,67.5,0,0,0,0,13.78,132,132,0,0,1,.71,13.78q-.72,8.48-.71,16.6A77.49,77.49,0,0,1-950,245.17q-3.54,18.38-7.07,35.33t-7.77,33.91q-5.65,20.5-10.6,41a251.85,251.85,0,0,1-12.71,38.86q-7.79,21.9-17.31,43.45t-18.73,43.45A693.62,693.62,0,0,1-1058.45,550q-18.72,32.85-40.63,63.94-25.44,37.44-51.58,69.94-11.28,14.13-21.9,27.56t-21.9,26.85q-18.36,18.36-37.45,36a162.89,162.89,0,0,1-41.68,28.26A157.82,157.82,0,0,1-1304,814.28a72.82,72.82,0,0,1-31.09,1.06q-7.77-1.43-9.89-5.66-4.24-7.77-8.13-15.54t-8.12-15.54q-2.11-7.08-4.24-9.89a87.52,87.52,0,0,0,1.41,27.2q2.83,13.07,9.19,20.84,5,7.05,9.89,14.48a29.29,29.29,0,0,0,13.42,10.95,28.09,28.09,0,0,1,10.6,7.42,28,28,0,0,0,10.6,7.42,202.27,202.27,0,0,0,23.31,10.6q11.31,4.25,23.32,9.18a5.75,5.75,0,0,0,3.53.36,20.89,20.89,0,0,1,3.54-.36,94.21,94.21,0,0,1,11.65-.7c4,0,8.37-.25,13.07-.71a11.37,11.37,0,0,1,2.83.35,4,4,0,0,0,2.83-.35q14.13-7.78,27.9-15.54t27.21-16.25a75,75,0,0,0,18-14.49,104.56,104.56,0,0,1,17.31-15.19c2.83-2.82,5.65-5.54,8.48-8.12s5.9-5.3,9.18-8.13q5-6.36,10.25-13.07a174.76,174.76,0,0,0,10.24-14.48,48.69,48.69,0,0,1,4.6-5.3,37.16,37.16,0,0,0,4.59-5.65,18.78,18.78,0,0,0,2.83-7.42,19.32,19.32,0,0,0-1.42-9.89q12,2.8,17-3.89t10.6-14.48l2.12-2.12q7.77-9.9,15.19-19.43t14.48-19.43a113.42,113.42,0,0,0,9.54-15.54q3.87-7.79,8.12-16.25a7.91,7.91,0,0,1,1.77-3.18c.71-.71,1.52-1.54,2.47-2.48l8.48-4.24c2.83-1.41,2.58-4.71-.71-9.89a6.33,6.33,0,0,0,.71-2.82,4,4,0,0,1,.71-2.83q5.64-9.19,11.3-17.66a80.12,80.12,0,0,0,9.19-19.08q4.93-10.59,9.89-20.49l9.89-19.78q5.64-12,11-23.32t10.25-23.31q3.52-9.88,6.35-19.08t6.36-17.66a27.29,27.29,0,0,1,3.89-6.71,66.77,66.77,0,0,0,4.59-6.72,59.22,59.22,0,0,0,2.47-7.77,60.18,60.18,0,0,1,2.48-7.77,6.86,6.86,0,0,1,2.12-2.47,1.82,1.82,0,0,0,.7-2.47c-2.82-6.12-3.07-10.71-.7-13.78A20,20,0,0,1-897,410.5q-5.67-14.13,3.53-21.91a10.63,10.63,0,0,0,3.53-4.24q1.41-2.81,2.83-6.35,3.52-13.42,6.71-26.85t6.71-27.56q4.94-23.31,9.19-46.63t-2.12-48.75C-867.58,226.34-868.64,224.33-869.81,222.21Zm-298.86,554.27q-6,7.77-10.95,14.13a63.47,63.47,0,0,1-13.78,12.72,94.24,94.24,0,0,0-14.48,12,8.81,8.81,0,0,0-2.12,3.53,11.57,11.57,0,0,0-.71,2.83,208.68,208.68,0,0,0-19.78,15.54,23,23,0,0,1-10.6,4.24,99.17,99.17,0,0,1-12,.7q10.59-7.77,19.43-14.83t17.31-12.72a37.42,37.42,0,0,0,2.82-3.18,39.7,39.7,0,0,1,2.83-3.18,37.46,37.46,0,0,1,3.53-5.65,47.46,47.46,0,0,1,4.24-5l12.72-11.3a144.8,144.8,0,0,0,12-12,120.79,120.79,0,0,0,15.54-15.55,1.39,1.39,0,0,0,.71-2.12,8,8,0,0,1-.71-3.53,3,3,0,0,1-2.12-.7,28.56,28.56,0,0,0,9.19-5.66q2.11,10.61,4.94,22.61Q-1162.66,768.71-1168.67,776.48Zm47.69-54.41a8.69,8.69,0,0,1-2.12,3.54,147.8,147.8,0,0,1-10.25,13.07q-5.3,6-11,13.07a29.92,29.92,0,0,1-4.24,2.83c-.93-1-1.64-1.42-2.12-1.42l4.24-8.48a63.5,63.5,0,0,0,3.54-8.47c-1.42-.48-2.94-1.06-4.6-1.77a34.19,34.19,0,0,0-5.29-1.77q7.77-2.11,9.53-7.42a21.42,21.42,0,0,0,.36-11.65,101.45,101.45,0,0,0-10.95,9.53q-5.31,5.31-13.08,11.66l6.36,2.12a11.77,11.77,0,0,0,3.54.71,11.07,11.07,0,0,0,2.12,2.82,4.7,4.7,0,0,0-2.12.36,3.2,3.2,0,0,1-1.42.35c-5.17-1.41-9.18-.6-12,2.47s-5.65,6-8.48,8.84q-13.41,13.41-26.84,27.9T-1233.32,809a27.65,27.65,0,0,1-9.89,6.36,62.73,62.73,0,0,0-11.3,5.65c-1.88,1.41-3.89,2.93-6,4.59a71.75,71.75,0,0,0-6.71,6,6.42,6.42,0,0,1-3.18-1.06,6.75,6.75,0,0,0-3.53-1.06,3.19,3.19,0,0,0-2.83,2.12c-.71,1.41-.82,4-.35,7.77,0,.94-.59,1.64-1.77,2.12a8.31,8.31,0,0,1-2.47.7,9,9,0,0,1-4.24-4.94A8.78,8.78,0,0,1-1286,833c.25-1.41.6-3.3,1.06-5.65a223.42,223.42,0,0,1,27.21-13.43q13.77-5.65,25.78-18.37,9.92-9.9,20.14-19.78t20.14-19.78q10.59-12,20.84-24.38t20.84-24.37q1.42-1.43,6.36-1.42a16.83,16.83,0,0,0,.35,3.18,23,23,0,0,1,.36,4.6,9.53,9.53,0,0,1,3.93-1.77,25.89,25.89,0,0,0,5.25-1.77q-2.61,7.77-4.59,14.13a94.5,94.5,0,0,1-4.59,12q7.07-.72,9.18-5.66c1.41-3.3,3.07-6.83,5-10.59a27.08,27.08,0,0,1,2.82-2.48,25.11,25.11,0,0,0,2.83-2.47l1.41,1.41,2.12,2.12A29,29,0,0,0-1121,722.07Zm15.19-54c1.18-2.12,2.47-4.36,3.89-6.72a40.41,40.41,0,0,0,3.88,9.19q2.49,4.23-3.18,7.77a5.53,5.53,0,0,1-3.88,0q-2.48-.72-5.3-1.41C-1108.5,673.08-1107,670.14-1105.79,668Zm-6.36,36.73q-1.06-3.16-1.77-18a78.27,78.27,0,0,0,4.24,9.54q2.13,3.87,4.24,8.83Q-1111.08,707.94-1112.15,704.76ZM-1085.3,674q-3.18,3.53-5.3,6.36l-1.41,1.41h-1.42q.72,7.77-4.51,8.83a12.17,12.17,0,0,0-8.2,6c-.47-1.41-.82-2.59-1.06-3.53s.25-2.36,1.44-4.24,3-4.36,5.43-7.42,5.83-7.42,10.2-13.07l-2.91-4.24a46.06,46.06,0,0,1-2.91-4.95l2.18-2.12a22.69,22.69,0,0,0,6.91,5.66c2.68,1.41,4.25,3,4.74,4.94Q-1082.12,670.49-1085.3,674Zm8.83-24q-8.47-11.31,7.07-17a21.28,21.28,0,0,0-3.89-2.12,10.4,10.4,0,0,1-3.89-3.53,70.71,70.71,0,0,1,4.24-7.42,67.32,67.32,0,0,0,4.24-7.42.63.63,0,0,0,.71.71h1.41a46.09,46.09,0,0,1,.71,9.89,47.56,47.56,0,0,1,9.18.71q-5.64,7.75-10.24,14.13C-1070,642.24-1073.17,646.23-1076.47,650Zm18-.71a69.71,69.71,0,0,1-8.13,6.36v-1.41a24.8,24.8,0,0,1,3.89-7.42,54.11,54.11,0,0,0,5.3-8.83c.47,1.41,3.07,2.82,7.77,4.24A95.71,95.71,0,0,0-1058.45,649.3Zm58.28-142.72q-7.77,15.56-14.83,31.09t-14.84,31.09a17.94,17.94,0,0,0-1.77,5.65,25.39,25.39,0,0,1-1.76,6.36,12.84,12.84,0,0,0-1.06,3.53c-.23,1.41-.82,2.12-1.77,2.12-2.82.48-4.35,1.77-4.59,3.89a22.35,22.35,0,0,0,.35,6.71,7.87,7.87,0,0,0,3.18,2.83c1.66.93,3.18,1.87,4.59,2.82.48.47.71.82.71,1.06s.24.59.71,1.06a121.22,121.22,0,0,1-12.37,6q-6,2.46-13.07,6v-9.18a44.87,44.87,0,0,0-5.65.35,46.45,46.45,0,0,1-5.65.35,2.93,2.93,0,0,0-.36-1.41,3.22,3.22,0,0,1-.35-1.41,44.71,44.71,0,0,1,5-2.83,38,38,0,0,1,4.94-2.12q9.19-4.23,8.48-14.13a13.67,13.67,0,0,1,2.12-7.06q4.95-5.65,9.19-10.6t9.89-11.31a30.09,30.09,0,0,0-5.66-1.76,28.69,28.69,0,0,1-5.65-1.77q9.9-3.52,13.78-11.3a126.23,126.23,0,0,0,6.71-16.25q2.82-6.36,6-12.72t6.71-12a4.51,4.51,0,0,1,2.83-2.12,28.06,28.06,0,0,0,3.53-1.41,19.12,19.12,0,0,0,.7,4.23C-999.7,504.23-999.7,505.65-1000.17,506.58Z" transform="translate(1365.91 228.83)"/><path class="cls-1" d="M-840.49,43.1A14.22,14.22,0,0,1-837,38.51q2.13-1.75,4.24-3.89a11.29,11.29,0,0,1,2.12,2.83,7.15,7.15,0,0,1,3.18-.71,4.39,4.39,0,0,0,3.18-1.41c2.83-2.35,5.76-4.82,8.83-7.42a48.43,48.43,0,0,0,8.13-8.83,62.19,62.19,0,0,1,18.37-15.9,39.19,39.19,0,0,0,16.25-18,5.32,5.32,0,0,1,1.41-1.06,5.59,5.59,0,0,0,1.41-1.06q6.36-4.25,10.25-15.9t.35-18q-3.54-7.05-7.42-13.77a36,36,0,0,0-9.54-11q-5.65-4.25-11.3-8.84t-14.84-3.18a19.55,19.55,0,0,1-10.95-1.76,61.24,61.24,0,0,0-11-3.89,50.33,50.33,0,0,0-6-1.06c-2.11-.23-3.65.12-4.59,1.06a43.22,43.22,0,0,0-12,15.55q-13.42,26.85-23.31,51.57-8.49,21.92-17.31,43.45t-16.61,44.16A16.41,16.41,0,0,0-903,76a21.53,21.53,0,0,0,10.95,9.53,11.77,11.77,0,0,0,6,1.06c1.64-.23,2.94-1.76,3.88-4.59a4.36,4.36,0,0,1,1.77-3.53,39.29,39.29,0,0,0,3.18-2.83c1.88-1.87,3.64-3.53,5.3-4.94s3.41-3.06,5.3-5a4.59,4.59,0,0,0,2.12-2.12,2.25,2.25,0,0,1,2.12-1.41q9.89,0,13.77-6.71A126.07,126.07,0,0,1-840.49,43.1Z" transform="translate(1365.91 228.83)"/><path class="cls-1" d="M-715.44,531.52q9.18-10.56,17.31-21.47t16.61-22.18q5.64-7.74,11.3-14.78t11.3-14.79q5.65-7.74,11-14.43t11-14.44a117.59,117.59,0,0,1,11-13.38,33.12,33.12,0,0,0,8.12-16.2,18.72,18.72,0,0,1,3.54-4.92q3.52-3.51,7.06-7.4t7.07-8.12l4.23-5.65q2.13-2.82,4.24-5.66c1.42-1.87,2.83-3.64,4.24-5.29s2.83-3.18,4.24-4.6l8.48-12.71a39.34,39.34,0,0,1,3.18-5.3q1.75-2.47,3.89-6a97,97,0,0,0,21.54-19.07q9.54-11.3,20.14-22.61a3,3,0,0,0-3.89,0,20.28,20.28,0,0,0-3.17,3.18,16,16,0,0,1-2.83,2.82q-1.42,1.07-4.24-1.76,7.77-7.77,14.48-15.9T-512,265l-2.12-2.12-11.3,11.31-11.31,11.3q-7.06,6.36-13.42,12.37t-12.72,12.36a84.31,84.31,0,0,0-5.3,7.42,43.77,43.77,0,0,1-6,7.42q-4.95,5.65-9.19,10.95a133.24,133.24,0,0,1-9.89,11c-2.36,2.36-4.94,4.71-7.77,7.06a60.76,60.76,0,0,0-7.77,7.78q-3.56,5-6.71,10.24a75.53,75.53,0,0,1-7.42,10.25,16.65,16.65,0,0,1-5.3,4.59,54.14,54.14,0,0,0-6,3.87l-2.12-2.11c2.35-3.29,4.95-6.59,7.77-9.89a87.34,87.34,0,0,0,7.78-10.6,6.46,6.46,0,0,0-1.42-1.06,5.06,5.06,0,0,1-1.41-1.06c-1.89,2.37-3.53,4.6-4.95,6.72s-3.06,4.36-4.94,6.71q-11.31,12.72-22.61,25.38t-22.61,26q-12.72,14.79-25.43,29.92t-24.73,31.33Q-743,509-756.42,526.25T-784,561.09a6.11,6.11,0,0,1-3.18,1.76,6.25,6.25,0,0,0-3.18,1.76,22.66,22.66,0,0,0-.35-3.51,5.57,5.57,0,0,1,.35-3.54q1.41-4.9,2.47-9.84c.71-3.29,1.29-6.57,1.77-9.86q2.82-31,18.37-62.66a45.6,45.6,0,0,1,5.65-10.57c2.35-3.29,2.83-7,1.41-11.27a1.39,1.39,0,0,1,.71-2.11,4.59,4.59,0,0,0,2.12-2.1q2.12-4.93,4.59-9.51t4.59-8.8l-3.53-3.52,11.31-22.53a37.22,37.22,0,0,1,2.12-4.94q3.53-7.73,7.41-15.85t7.42-16.6a12.57,12.57,0,0,0,1.42-5.65,8.66,8.66,0,0,1,1.41-4.95,71.37,71.37,0,0,0,8.83-15.9,47.89,47.89,0,0,1,8.83-14.48,43.56,43.56,0,0,0,9.89-18,32.43,32.43,0,0,1,12-17.31c1.41-.46,2.11-1.64,2.11-3.53q-1.41-5.64,1.77-9.18A21.26,21.26,0,0,0-673,269.9a30,30,0,0,1,4.6-8.48c2.12-2.83,4.11-5.41,6-7.77q5.66-9.18,12-18t12-18q5.65-9.88,11.31-19.07a102,102,0,0,0,9.18-19.08q2.82-7.77,5.3-15.54a36.86,36.86,0,0,0,1.06-17,46.6,46.6,0,0,0-8.48-18.37,24,24,0,0,0-16.25-9.89,10.34,10.34,0,0,0-5.3,0,9.92,9.92,0,0,1-5.3,0c-3.3,0-5.42-1.17-6.35-3.53q-.72-5.65-3.54-5.65a33.67,33.67,0,0,0-6.36.7c-3.77,0-6.35-.46-7.77-1.41a28.48,28.48,0,0,0-8.12-3.89c-2.6-.7-5.3.36-8.13,3.18a39.72,39.72,0,0,0-4.94,6,36.17,36.17,0,0,0-3.54,6.71Q-706.25,143.44-717.2,165t-21.55,44.16q-10.61,21.9-21.2,43.45T-780.44,296q-5.65,11.31-10.24,21.9t-9.54,21.2q-4.24,11.31-8.48,22.25t-7.77,22.26q-5.67,17.61-10.95,34.87t-11,34.84a149.61,149.61,0,0,0-4.24,19.37q-1.41,9.5-2.83,19.36t-2.83,19a85.41,85.41,0,0,0-.7,19q0,21.82,12,35.56a152.69,152.69,0,0,0,28.26,25,1.56,1.56,0,0,0,1.77.35,7.91,7.91,0,0,1,2.47-.35c3.76.48,7.17.82,10.24,1.06s6.47.35,10.25.35c3.76.94,6.36.94,7.77,0l9.89-5.63a63.37,63.37,0,0,0,9.19-6.33,96.62,96.62,0,0,0,22.61-23.24Q-725.34,543.49-715.44,531.52Zm60.06-122.44q2.8-3.52,5.65-6.71t6.36-6.71c2.35-2.35,4.24-2.94,5.65-1.77s3.29,2.72,5.65,4.6q-9.9.7-13.78,6.71a137.06,137.06,0,0,0-7.41,13.07Q-661,414.75-655.38,409.08Zm-124.71-59q3.18-6.7,6.72-14.49a7.46,7.46,0,0,0,1.41,2.12,2.12,2.12,0,0,1,.71,1.42q-2.13,5.66-4.24,12t-4.24,12c-.95,2.82-2.12,4-3.54,3.53a6.76,6.76,0,0,1-3.53-2.82Q-783.28,356.81-780.09,350.09ZM-799.16,407q-2.49,6.36-5.3,13.43-2.84-4.25,0-13.07t7.77-13.78a4.08,4.08,0,0,0,2.83.71Q-796.69,400.61-799.16,407Z" transform="translate(1365.91 228.83)"/><path class="cls-1" d="M-568.48,312.64q2.82-1.75,5.65-3.18c0-3.29.23-5.41.71-6.36a73.56,73.56,0,0,1,5.65-6.35,77.47,77.47,0,0,0,5.65-6.36,2.06,2.06,0,0,0-1.41-.71q-7.07,7.79-14.13,14.48t-14.84,14.49a27.12,27.12,0,0,0,6.36-2.83A40.13,40.13,0,0,0-568.48,312.64Z" transform="translate(1365.91 228.83)"/><path class="cls-1" d="M-621.47,362.45l2.12,2.12q4.25-4.23,8.48-8.48t7.77-8.47l-2.12-2.12L-613.7,354C-616.52,356.8-619.12,359.63-621.47,362.45Z" transform="translate(1365.91 228.83)"/><path class="cls-1" d="M-517.61,258.59a60.84,60.84,0,0,1,11.3-1.41,10,10,0,0,1,4.24-.71,10.76,10.76,0,0,1-1.41,4.24,10.93,10.93,0,0,1-1.41,4.24l-4.24,7.07q-2.13,3.54-3.54,6.36a13.64,13.64,0,0,0-.35,5.29,6.8,6.8,0,0,1-.35,3.89q-7.08,16.26-13.78,32.5t-12.36,32.5a243.4,243.4,0,0,0-8.48,24,244.93,244.93,0,0,1-8.48,24,310.41,310.41,0,0,0-22.61,89.73q-1.42,16.26-2.12,31.8a67,67,0,0,0,6.36,31.08q4.25,9.19,8.48,18a37.57,37.57,0,0,0,12,14.48c2.83.95,5.53,1.89,8.12,2.83s5.54,1.89,8.84,2.83a32.22,32.22,0,0,1,2.12-3.54,7.66,7.66,0,0,0,1.41-4.23,20.82,20.82,0,0,1,6.36-18.37,18.57,18.57,0,0,0,5.3-9.54q1.05-5.3,1.76-11t1.42-11a49.74,49.74,0,0,1,2.82-11,99.2,99.2,0,0,0,5.65-23.31,56.87,56.87,0,0,1,7.07-21.9,33.65,33.65,0,0,0,3.18-15.55q-.36-7.76,8.12-12.71l.71-.71c-1.41-3.77-1.18-6.82.71-9.19a24.17,24.17,0,0,0,4.24-8.47,38.39,38.39,0,0,0,.7-8.48l.71.7q12-24,24-47.69t24-47.69a58.48,58.48,0,0,0,6.72-3.18c2.12-1.17,3.41-2.47,3.88-3.88a31.17,31.17,0,0,1,6.71-15.55,86.06,86.06,0,0,0,9.54-14.13q4.25-6.36,8.48-13.07a40.38,40.38,0,0,0,5.65-14.48,65.54,65.54,0,0,0,1.77-12.37,24.54,24.54,0,0,0-2.47-12.36A48.21,48.21,0,0,0-406,227.15q-5.65-5.29-11.3-11a24.66,24.66,0,0,0-6.36-4.59c-2.37-1.17-4.72-2.47-7.07-3.89a56.4,56.4,0,0,1-8.12-4.94,30.27,30.27,0,0,0-8.13-4.24,3.72,3.72,0,0,0-3.88-.71,19,19,0,0,1-5.3.71c-.95.47-2,1.06-3.18,1.76a7.41,7.41,0,0,1-3.89,1.06q-12.72,0-17,13.43A33.63,33.63,0,0,1-489,228.92q-6,5.66-13.07,11.3a32.56,32.56,0,0,1-6.36,4.95c-2.36,1.41-2.82,4-1.41,7.77l-8.48,2.12A7.73,7.73,0,0,0-517.61,258.59Z" transform="translate(1365.91 228.83)"/><path class="cls-1" d="M-599.57,342l11.31-9.89a22,22,0,0,0,7.06-13.42q-4.95,5.66-9.89,11T-601,340.55A1.24,1.24,0,0,0-599.57,342Z" transform="translate(1365.91 228.83)"/><path class="cls-1" d="M-211.69,43.1a14.22,14.22,0,0,1,3.53-4.59c1.41-1.17,2.83-2.47,4.24-3.89a11.53,11.53,0,0,1,2.12,2.83,7.15,7.15,0,0,1,3.18-.71,4.39,4.39,0,0,0,3.18-1.41q4.23-3.53,8.83-7.42a48,48,0,0,0,8.12-8.83,62.44,62.44,0,0,1,18.37-15.9,39.08,39.08,0,0,0,16.25-18,5.52,5.52,0,0,1,1.42-1.06A5.59,5.59,0,0,0-141-16.95q6.36-4.25,10.25-15.9t.35-18q-3.54-7.05-7.42-13.77a36,36,0,0,0-9.54-11q-5.65-4.25-11.3-8.84t-14.84-3.18a19.55,19.55,0,0,1-11-1.76,61.24,61.24,0,0,0-10.95-3.89,50.33,50.33,0,0,0-6-1.06q-3.18-.34-4.59,1.06a43.22,43.22,0,0,0-12,15.55q-13.42,26.85-23.32,51.57-8.48,21.92-17.31,43.45t-16.6,44.16A16.41,16.41,0,0,0-274.22,76a21.49,21.49,0,0,0,11,9.53,11.76,11.76,0,0,0,6,1.06q2.46-.35,3.88-4.59a4.36,4.36,0,0,1,1.77-3.53,39.29,39.29,0,0,0,3.18-2.83c1.88-1.87,3.64-3.53,5.3-4.94s3.41-3.06,5.3-5a4.63,4.63,0,0,0,2.12-2.12,2.25,2.25,0,0,1,2.12-1.41q9.89,0,13.77-6.71A126.07,126.07,0,0,1-211.69,43.1Z" transform="translate(1365.91 228.83)"/><path class="cls-1" d="M-241,222.21a21.89,21.89,0,0,0-3.18-4.6,95.53,95.53,0,0,0-8.83-7.77,58.34,58.34,0,0,1-8.84-8.48q-9.9-12.71-22.6-17.66a73.62,73.62,0,0,0-26.85-4.94,33.23,33.23,0,0,0-5.3,2.47q-3.18,1.77-3.18,4.59a66.1,66.1,0,0,0,0,13.78,134.75,134.75,0,0,1,.71,13.78q-.72,8.48-.71,16.6a78.27,78.27,0,0,1-1.41,15.19q-3.56,18.38-7.07,35.33T-336,314.41q-5.67,20.5-10.6,41a250.8,250.8,0,0,1-12.72,38.86q-7.77,21.9-17.31,43.45t-18.72,43.45A691.5,691.5,0,0,1-429.66,550q-18.7,32.85-40.62,63.94-25.44,37.44-51.58,69.94-11.29,14.13-21.9,27.56t-21.9,26.85q-18.36,18.36-37.45,36a163.06,163.06,0,0,1-41.68,28.26,157.82,157.82,0,0,1-30.38,11.66,72.83,72.83,0,0,1-31.09,1.06q-7.77-1.43-9.89-5.66-4.25-7.77-8.13-15.54c-2.58-5.19-5.3-10.37-8.12-15.54q-2.13-7.08-4.24-9.89a87.22,87.22,0,0,0,1.41,27.2q2.84,13.07,9.19,20.84,4.95,7.05,9.89,14.48a29.29,29.29,0,0,0,13.42,10.95,28.09,28.09,0,0,1,10.6,7.42,28,28,0,0,0,10.6,7.42,201.5,201.5,0,0,0,23.31,10.6q11.31,4.25,23.32,9.18a5.75,5.75,0,0,0,3.53.36,20.78,20.78,0,0,1,3.53-.36,94.37,94.37,0,0,1,11.66-.7c4,0,8.37-.25,13.07-.71a11.37,11.37,0,0,1,2.83.35,4,4,0,0,0,2.82-.35q14.15-7.78,27.91-15.54t27.2-16.25a75,75,0,0,0,18-14.49A104.16,104.16,0,0,1-507,813.92c2.83-2.82,5.65-5.54,8.48-8.12s5.89-5.3,9.18-8.13q5-6.36,10.25-13.07a174.76,174.76,0,0,0,10.24-14.48,48.61,48.61,0,0,1,4.59-5.3,37.2,37.2,0,0,0,4.6-5.65,18.62,18.62,0,0,0,2.82-7.42,19.3,19.3,0,0,0-1.41-9.89q12,2.8,17-3.89t10.59-14.48l2.12-2.12q7.78-9.9,15.19-19.43t14.49-19.43A113.42,113.42,0,0,0-389.38,667q3.87-7.79,8.12-16.25a7.91,7.91,0,0,1,1.77-3.18c.7-.71,1.52-1.54,2.47-2.48l8.48-4.24c2.83-1.41,2.58-4.71-.71-9.89a6.33,6.33,0,0,0,.71-2.82,4,4,0,0,1,.71-2.83q5.64-9.19,11.3-17.66a80.1,80.1,0,0,0,9.18-19.08q4.94-10.59,9.9-20.49l9.89-19.78q5.64-12,10.95-23.32t10.24-23.31q3.53-9.88,6.36-19.08t6.36-17.66a27.29,27.29,0,0,1,3.89-6.71,66.77,66.77,0,0,0,4.59-6.72,59.22,59.22,0,0,0,2.47-7.77,61.8,61.8,0,0,1,2.47-7.77,7,7,0,0,1,2.12-2.47,1.82,1.82,0,0,0,.71-2.47q-4.25-9.18-.71-13.78a20.12,20.12,0,0,1,9.9-6.71q-5.67-14.13,3.53-21.91a10.63,10.63,0,0,0,3.53-4.24q1.41-2.81,2.83-6.35,3.52-13.42,6.71-26.85t6.71-27.56q4.93-23.31,9.19-46.63t-2.12-48.75C-238.78,226.34-239.84,224.33-241,222.21ZM-539.87,776.48q-6,7.77-11,14.13a63.43,63.43,0,0,1-13.77,12.72,94.78,94.78,0,0,0-14.49,12,9,9,0,0,0-2.12,3.53,11.88,11.88,0,0,0-.7,2.83,207.67,207.67,0,0,0-19.79,15.54,23,23,0,0,1-10.59,4.24,99.17,99.17,0,0,1-12,.7q10.59-7.77,19.43-14.83t17.31-12.72a41.25,41.25,0,0,0,2.82-3.18,39.7,39.7,0,0,1,2.83-3.18,37.46,37.46,0,0,1,3.53-5.65,46.29,46.29,0,0,1,4.24-5l12.72-11.3a146.35,146.35,0,0,0,12-12,120.79,120.79,0,0,0,15.54-15.55,1.39,1.39,0,0,0,.71-2.12,7.84,7.84,0,0,1-.71-3.53,2.94,2.94,0,0,1-2.12-.7,28.56,28.56,0,0,0,9.19-5.66q2.12,10.61,4.94,22.61Q-533.86,768.71-539.87,776.48Zm47.69-54.41a8.8,8.8,0,0,1-2.12,3.54,149.68,149.68,0,0,1-10.25,13.07q-5.29,6-10.95,13.07a30.59,30.59,0,0,1-4.24,2.83c-.94-1-1.64-1.42-2.12-1.42l4.24-8.48a63.42,63.42,0,0,0,3.53-8.47c-1.41-.48-2.93-1.06-4.59-1.77a34,34,0,0,0-5.3-1.77q7.79-2.11,9.54-7.42a21.43,21.43,0,0,0,.35-11.65A103.4,103.4,0,0,0-525,723.13a174.66,174.66,0,0,1-13.07,11.66l6.36,2.12a11.71,11.71,0,0,0,3.53.71,11.31,11.31,0,0,0,2.12,2.82,4.73,4.73,0,0,0-2.12.36,3.13,3.13,0,0,1-1.41.35c-5.18-1.41-9.18-.6-12,2.47s-5.65,6-8.48,8.84q-13.41,13.41-26.85,27.9T-604.52,809a27.65,27.65,0,0,1-9.89,6.36A63.14,63.14,0,0,0-625.72,821c-1.87,1.41-3.88,2.93-6,4.59a71.75,71.75,0,0,0-6.71,6,6.42,6.42,0,0,1-3.18-1.06,6.78,6.78,0,0,0-3.54-1.06,3.17,3.17,0,0,0-2.82,2.12c-.71,1.41-.82,4-.36,7.77,0,.94-.58,1.64-1.76,2.12a8.31,8.31,0,0,1-2.47.7,9,9,0,0,1-4.24-4.94,8.78,8.78,0,0,1-.36-4.24c.25-1.41.6-3.3,1.06-5.65a224,224,0,0,1,27.2-13.43q13.78-5.65,25.79-18.37,9.9-9.9,20.14-19.78T-562.84,756q10.61-12,20.85-24.38t20.84-24.37q1.42-1.43,6.36-1.42a16.83,16.83,0,0,0,.35,3.18,23.88,23.88,0,0,1,.35,4.6,9.65,9.65,0,0,1,3.93-1.77,25.94,25.94,0,0,0,5.26-1.77q-2.62,7.77-4.59,14.13a94.52,94.52,0,0,1-4.6,12q7.08-.72,9.19-5.66c1.41-3.3,3.07-6.83,4.94-10.59a27.14,27.14,0,0,1,2.83-2.48A25.11,25.11,0,0,0-494.3,715l1.41,1.41,2.12,2.12A29,29,0,0,0-492.18,722.07ZM-477,668q1.77-3.18,3.88-6.72a40.44,40.44,0,0,0,3.89,9.19c1.65,2.82.6,5.41-3.18,7.77a5.56,5.56,0,0,1-3.89,0q-2.46-.72-5.3-1.41Q-478.75,671.19-477,668Zm-6.36,36.73q-1.06-3.16-1.77-18a76.76,76.76,0,0,0,4.24,9.54q2.11,3.87,4.24,8.83C-480.4,707-482.65,706.88-483.35,704.76ZM-456.5,674q-3.18,3.53-5.3,6.36l-1.42,1.41h-1.41q.72,7.77-4.51,8.83a12.21,12.21,0,0,0-8.21,6c-.46-1.41-.81-2.59-1.06-3.53s.26-2.36,1.45-4.24,3-4.36,5.43-7.42,5.83-7.42,10.2-13.07l-2.91-4.24a46,46,0,0,1-2.92-4.95l2.19-2.12a22.69,22.69,0,0,0,6.91,5.66c2.68,1.41,4.25,3,4.74,4.94Q-453.32,670.49-456.5,674Zm8.83-24q-8.47-11.31,7.06-17a20.9,20.9,0,0,0-3.88-2.12,10.32,10.32,0,0,1-3.89-3.53,69,69,0,0,1,4.24-7.42,69,69,0,0,0,4.24-7.42.63.63,0,0,0,.71.71h1.41a46.77,46.77,0,0,1,.71,9.89,47.56,47.56,0,0,1,9.18.71q-5.64,7.75-10.24,14.13C-441.19,642.24-444.37,646.23-447.67,650Zm18-.71a68.78,68.78,0,0,1-8.12,6.36v-1.41a25,25,0,0,1,3.88-7.42,52.73,52.73,0,0,0,5.3-8.83q.72,2.12,7.78,4.24A97.27,97.27,0,0,0-429.66,649.3Zm58.29-142.72q-7.78,15.56-14.83,31.09T-401,568.76a17.94,17.94,0,0,0-1.77,5.65,25.39,25.39,0,0,1-1.76,6.36,12.84,12.84,0,0,0-1.06,3.53c-.24,1.41-.82,2.12-1.77,2.12-2.83.48-4.35,1.77-4.59,3.89a22.35,22.35,0,0,0,.35,6.71,7.87,7.87,0,0,0,3.18,2.83c1.66.93,3.18,1.87,4.59,2.82.48.47.71.82.71,1.06s.24.59.71,1.06a121.22,121.22,0,0,1-12.37,6c-4,1.64-8.36,3.64-13.07,6v-9.18a44.75,44.75,0,0,0-5.65.35,46.57,46.57,0,0,1-5.65.35,2.93,2.93,0,0,0-.36-1.41,3.22,3.22,0,0,1-.35-1.41,44.71,44.71,0,0,1,4.95-2.83,37.43,37.43,0,0,1,4.94-2.12q9.19-4.23,8.48-14.13a13.67,13.67,0,0,1,2.12-7.06q4.95-5.65,9.18-10.6t9.9-11.31a30.31,30.31,0,0,0-5.66-1.76,28.48,28.48,0,0,1-5.65-1.77q9.9-3.52,13.78-11.3a126.23,126.23,0,0,0,6.71-16.25q2.82-6.36,6-12.72t6.71-12a4.52,4.52,0,0,1,2.82-2.12,27.66,27.66,0,0,0,3.54-1.41,19.12,19.12,0,0,0,.7,4.23C-370.9,504.23-370.9,505.65-371.37,506.58Z" transform="translate(1365.91 228.83)"/><path class="cls-1" d="M29.23,342l11.3-9.89a22,22,0,0,0,7.07-13.42q-5,5.66-9.89,11t-9.89,10.95A1.24,1.24,0,0,0,29.23,342Z" transform="translate(1365.91 228.83)"/><path class="cls-1" d="M7.33,362.45l2.12,2.12,8.48-8.48c2.82-2.82,5.4-5.65,7.77-8.47l-2.12-2.12L15.1,354Q10.86,358.22,7.33,362.45Z" transform="translate(1365.91 228.83)"/><path class="cls-1" d="M60.32,312.64c1.87-1.17,3.76-2.23,5.65-3.18,0-3.29.23-5.41.71-6.36a73.56,73.56,0,0,1,5.65-6.35A79.37,79.37,0,0,0,78,290.39a2.06,2.06,0,0,0-1.41-.71q-7.08,7.79-14.13,14.48T47.6,318.65A27.12,27.12,0,0,0,54,315.82,40.13,40.13,0,0,0,60.32,312.64Z" transform="translate(1365.91 228.83)"/><path class="cls-1" d="M57.14,340.2c1.17-1.65,2.47-3.65,3.88-6a97,97,0,0,0,21.55-19.07q9.54-11.3,20.14-22.61a3,3,0,0,0-3.89,0,20.79,20.79,0,0,0-3.18,3.18,16,16,0,0,1-2.82,2.82q-1.42,1.07-4.24-1.76,7.77-7.77,14.48-15.9T116.84,265l-2.12-2.12-11.3,11.31-11.31,11.3Q85,291.8,78.69,297.81T66,310.17a84.31,84.31,0,0,0-5.3,7.42,44.26,44.26,0,0,1-6,7.42c-3.31,3.77-6.36,7.41-9.19,10.95a137,137,0,0,1-9.89,11q-3.54,3.54-7.77,7.06A61.49,61.49,0,0,0,20,361.75q-3.54,5-6.71,10.24a74.68,74.68,0,0,1-7.42,10.25,16.51,16.51,0,0,1-5.29,4.59,54.14,54.14,0,0,0-6,3.87l-2.12-2.11c2.35-3.29,4.95-6.59,7.77-9.89A86.22,86.22,0,0,0,8,368.1,6.42,6.42,0,0,0,6.62,367,5.06,5.06,0,0,1,5.21,366c-1.89,2.37-3.53,4.6-4.95,6.72s-3.07,4.36-4.94,6.71Q-16,392.13-27.29,404.79t-22.61,26q-12.72,14.79-25.44,29.92t-24.72,31.33Q-114.2,509-127.62,526.25t-27.55,34.84a6.11,6.11,0,0,1-3.18,1.76,6.25,6.25,0,0,0-3.18,1.76,21.66,21.66,0,0,0-.36-3.51,5.63,5.63,0,0,1,.36-3.54q1.41-4.9,2.47-9.84c.71-3.29,1.29-6.57,1.77-9.86q2.81-31,18.37-62.66a45.6,45.6,0,0,1,5.65-10.57q3.53-4.94,1.41-11.27a1.39,1.39,0,0,1,.71-2.11,4.64,4.64,0,0,0,2.12-2.1c1.41-3.29,2.93-6.46,4.59-9.51s3.18-6,4.59-8.8l-3.53-3.52,11.3-22.53a38.6,38.6,0,0,1,2.12-4.94q3.54-7.73,7.42-15.85t7.42-16.6a12.55,12.55,0,0,0,1.41-5.65,8.67,8.67,0,0,1,1.42-4.95,71.37,71.37,0,0,0,8.83-15.9,47.69,47.69,0,0,1,8.83-14.48,43.79,43.79,0,0,0,9.89-18,32.47,32.47,0,0,1,12-17.31c1.42-.46,2.12-1.64,2.12-3.53-1-3.76-.35-6.82,1.77-9.18a21.26,21.26,0,0,0,4.59-8.48,30,30,0,0,1,4.59-8.48c2.12-2.83,4.12-5.41,6-7.77q5.64-9.18,12-18t12-18Q-4,207.73,1.68,198.54a102,102,0,0,0,9.18-19.08q2.82-7.77,5.3-15.54a37,37,0,0,0,1.06-17,46.6,46.6,0,0,0-8.48-18.37A24,24,0,0,0-7.51,118.7a10.34,10.34,0,0,0-5.3,0,9.92,9.92,0,0,1-5.3,0c-3.3,0-5.42-1.17-6.36-3.53q-.71-5.65-3.53-5.65a33.49,33.49,0,0,0-6.36.7c-3.77,0-6.36-.46-7.77-1.41a28.6,28.6,0,0,0-8.12-3.89c-2.6-.7-5.3.36-8.13,3.18a39.79,39.79,0,0,0-4.95,6,36.73,36.73,0,0,0-3.53,6.71Q-77.45,143.44-88.41,165T-110,209.14q-10.59,21.9-21.19,43.45T-151.64,296q-5.67,11.31-10.25,21.9t-9.53,21.2q-4.25,11.31-8.48,22.25t-7.77,22.26q-5.67,17.61-11,34.87t-11,34.84a151.3,151.3,0,0,0-4.24,19.37q-1.4,9.5-2.82,19.36t-2.83,19a84.81,84.81,0,0,0-.7,19q0,21.82,12,35.56a152.69,152.69,0,0,0,28.26,25,1.55,1.55,0,0,0,1.76.35,8,8,0,0,1,2.48-.35c3.76.48,7.17.82,10.24,1.06s6.47.35,10.25.35c3.76.94,6.36.94,7.77,0l9.89-5.63a62.73,62.73,0,0,0,9.18-6.33,96.24,96.24,0,0,0,22.61-23.24q9.18-13.38,19.08-25.35,9.18-10.56,17.31-21.47t16.6-22.18q5.65-7.74,11.31-14.78t11.3-14.79q5.65-7.74,11-14.43t11-14.44a117.68,117.68,0,0,1,11-13.38,33.12,33.12,0,0,0,8.12-16.2,18.92,18.92,0,0,1,3.53-4.92q3.52-3.51,7.07-7.4t7.06-8.12c1.42-1.88,2.83-3.77,4.24-5.65S35.59,370,37,368.1s2.83-3.64,4.24-5.29,2.83-3.18,4.24-4.6L54,345.5A39.34,39.34,0,0,1,57.14,340.2Zm-208.43,9.89q3.18-6.7,6.71-14.49a7.67,7.67,0,0,0,1.42,2.12,2.1,2.1,0,0,1,.7,1.42q-2.11,5.66-4.24,12t-4.23,12c-.95,2.82-2.12,4-3.54,3.53a6.76,6.76,0,0,1-3.53-2.82Q-154.48,356.81-151.29,350.09ZM-170.36,407q-2.49,6.36-5.3,13.43-2.84-4.25,0-13.07t7.77-13.78a4.08,4.08,0,0,0,2.83.71Q-167.89,400.61-170.36,407ZM-17,405.2a139.28,139.28,0,0,0-7.42,13.07q-7.77-3.52-2.12-9.19,2.82-3.52,5.66-6.71t6.36-6.71q3.52-3.53,5.65-1.77c1.41,1.18,3.29,2.72,5.65,4.6Q-13.17,399.19-17,405.2Z" transform="translate(1365.91 228.83)"/><path class="cls-1" d="M222.82,227.15q-5.67-5.29-11.31-11a24.44,24.44,0,0,0-6.35-4.59c-2.37-1.17-4.72-2.47-7.07-3.89a56.5,56.5,0,0,1-8.13-4.94,30.07,30.07,0,0,0-8.12-4.24,3.73,3.73,0,0,0-3.89-.71,18.91,18.91,0,0,1-5.3.71c-.94.47-2,1.06-3.17,1.76a7.43,7.43,0,0,1-3.89,1.06q-12.72,0-17,13.43a33.63,33.63,0,0,1-8.83,14.13q-6,5.66-13.07,11.3a32.86,32.86,0,0,1-6.36,4.95c-2.36,1.41-2.82,4-1.41,7.77l-8.48,2.12a7.73,7.73,0,0,0,.71,3.53,60.84,60.84,0,0,1,11.3-1.41,10,10,0,0,1,4.24-.71,10.76,10.76,0,0,1-1.41,4.24A10.82,10.82,0,0,1,123.9,265L119.67,272q-2.13,3.54-3.54,6.36a13.64,13.64,0,0,0-.35,5.29,6.8,6.8,0,0,1-.35,3.89q-7.08,16.26-13.78,32.5t-12.37,32.5a243.3,243.3,0,0,0-8.47,24,247.57,247.57,0,0,1-8.48,24,310.09,310.09,0,0,0-22.61,89.73q-1.42,16.26-2.12,31.8A66.74,66.74,0,0,0,54,553.21q4.23,9.19,8.48,18a37.57,37.57,0,0,0,12,14.48q4.23,1.42,8.12,2.83t8.83,2.83a33.9,33.9,0,0,1,2.12-3.54,7.6,7.6,0,0,0,1.42-4.23,20.82,20.82,0,0,1,6.36-18.37,18.48,18.48,0,0,0,5.29-9.54q1.06-5.3,1.77-11c.46-3.77.94-7.42,1.41-11a50.35,50.35,0,0,1,2.83-11,99.2,99.2,0,0,0,5.65-23.31,56.87,56.87,0,0,1,7.07-21.9,33.65,33.65,0,0,0,3.18-15.55c-.25-5.17,2.47-9.41,8.12-12.71l.71-.71c-1.41-3.77-1.18-6.82.71-9.19a24.16,24.16,0,0,0,4.23-8.47,37.66,37.66,0,0,0,.71-8.48l.71.7q12-24,24-47.69t24-47.69a58.33,58.33,0,0,0,6.71-3.18c2.12-1.17,3.41-2.47,3.89-3.88A31.17,31.17,0,0,1,209,305.22a87.33,87.33,0,0,0,9.54-14.13q4.24-6.36,8.48-13.07a40.56,40.56,0,0,0,5.65-14.48,66.36,66.36,0,0,0,1.77-12.37A24.44,24.44,0,0,0,232,238.81,48.16,48.16,0,0,0,222.82,227.15Z" transform="translate(1365.91 228.83)"/><path class="cls-1" d="M446.78-83.37c-1.41,2.37-2.95,4.84-4.59,7.42s-3.66,5.54-6,8.83q-3.54-5.64-1.76-10.24t3.18-9.54a59.8,59.8,0,0,1,2.11-10.24q1.41-4.59,2.83-10.25a39.12,39.12,0,0,1-9.18-1.41,87.77,87.77,0,0,1-7.07,6.36,15.6,15.6,0,0,0-5,6.36,16.65,16.65,0,0,0-4.59,7.77,28,28,0,0,1-3.18,7.77,22.14,22.14,0,0,1-2.12,2.83q-7.77,7.06-10.59,15.19t-6.36,16.6a254.72,254.72,0,0,0-12.37,27.2Q376.84-4.93,371.18,9.19q-5.65,13.43-11.3,26.49t-12,26.5a67.62,67.62,0,0,1-5.66,13.42q-3.54,6.36-7.77,12.72a58.34,58.34,0,0,1-8.12,10.6q-5.31,5.65-3.89,14.13,0,2.83,5.65,7.06,1.41,1.42,10.6,5,6.36-4.25,10.6,2.83,2.12,2.12,7.06,2.11a58.66,58.66,0,0,0,10.6-1.41,57.15,57.15,0,0,1,8.48-2.12c2.83-.46,5.41-.94,7.77-1.41q5.65,1.43,9.54,0t7.42-7.07a78.31,78.31,0,0,0,6-11.65q2.48-6,5.3-11.66l2.12-6.36q3.53-6.36,6.72-13.07t-2.48-13.78a2.11,2.11,0,0,0,.36-2.12,2.06,2.06,0,0,1,.35-2.12q6.36-7,2.12-14.83a4.49,4.49,0,0,1,0-3.54,26.62,26.62,0,0,1,1.41-3.53,25.71,25.71,0,0,0,1.41-8.12V19.08a2.33,2.33,0,0,0,0-2.47,4.37,4.37,0,0,1-.7-2.48,93.41,93.41,0,0,0,4.59-12.71q1.75-6.36,3.18-12.72c.94-1.88,1.88-3.64,2.83-5.3a5.38,5.38,0,0,0,0-5.3,30.77,30.77,0,0,1,1.06-12.36q1.75-6,3.88-11.66,2.82-9.18,5.3-18t5.3-18.72C447.49-82.66,446.78-82.89,446.78-83.37Z" transform="translate(1365.91 228.83)"/><path class="cls-1" d="M878.46,128.59a88.24,88.24,0,0,0-16.25-19.43Q853,101,837.49,102.45a4,4,0,0,1-2.83-1.41q-4.24-2.82-8.12-5.3a90.27,90.27,0,0,0-8.13-4.59Q802.15,82,788,94.68q-5.67,5.66-11.66,12t-11.66,12.72l-78.42,84.78a181.78,181.78,0,0,0-12,14.84L663,234.57q-6.36,7.78-12.71,14.48a145.92,145.92,0,0,0-12,14.49q-7.08,9.19-13.78,18t-13.07,18a93.59,93.59,0,0,0-9.54,16.25c-2.6,5.65-2.47,12.26.35,19.78a78,78,0,0,1,5.65,20.85A113.8,113.8,0,0,0,612.81,378a14.23,14.23,0,0,0,3.53,6.71,14.48,14.48,0,0,1,3.54,6.71,35.26,35.26,0,0,0,9.53,21.2A165.64,165.64,0,0,1,644.6,431,120.84,120.84,0,0,0,664,452.53q11,9.54,22.26,19.43,12,9.92,24,19.43t24,19.43a23.93,23.93,0,0,1,3.54,2.83,38.2,38.2,0,0,0,4.24,3.53,28.54,28.54,0,0,1-5.66,1.77,12.73,12.73,0,0,0-3.53,1.06,86.11,86.11,0,0,1-10.6.7,71.4,71.4,0,0,0-9.89.71q-18.37,2.12-35.68,4.59t-35,3.89q-21.91.71-43.81,0-12-1.41-23.31-2.47T551.34,525a121.17,121.17,0,0,0-13.07-2.12,112.36,112.36,0,0,1-13.07-2.12q-3.53-1.4-7.06-3.17c-2.36-1.17-4.71-2.48-7.07-3.89a37.3,37.3,0,0,0,7.77,13.78,45.78,45.78,0,0,0,11.31,8.83q9.9,5.65,18.72,11.3t18,12a55.45,55.45,0,0,0,22.25,10.6,55.82,55.82,0,0,1,22.26,10.6,4.06,4.06,0,0,0,2.82.71,99.75,99.75,0,0,0,10.95,2.12c3.54.47,7.18.94,11,1.41a19.8,19.8,0,0,0,6.35.35,13,13,0,0,1,6.36,1.06q5.65,1.43,11.66,3.18a73,73,0,0,0,11.66,2.47,91.35,91.35,0,0,0,13.78.36q6.7-.37,13.77-1.06l55.11-4.24a30.65,30.65,0,0,0,4.59-.36,4.38,4.38,0,0,1,3.89,1.06c5.65,3.31,11.31,4.12,17,2.48a60.21,60.21,0,0,1,17-2.48,125.73,125.73,0,0,0,23.32-2.12,197.11,197.11,0,0,0,22.61-5.65,14.79,14.79,0,0,0,6.36-5.3,60.9,60.9,0,0,1,6.36-7.41c.93-.94.7-2.12-.71-3.54q-3.54-5.64-7.07-11.65a45,45,0,0,0-9.18-11Q828.3,532,817,523.54t-23.32-16.25Q776.73,496,759.41,485t-35-22.26A299.43,299.43,0,0,1,699,443.35a187.54,187.54,0,0,1-22.61-23,62.34,62.34,0,0,0-14.13-12.72,29.52,29.52,0,0,1-8.83-13.78A19.86,19.86,0,0,1,655.2,378q7.77-12,15.19-23t15.19-23l8.48-12.72q4.25-6.35,7.77-12a40.93,40.93,0,0,0,9.19-7.77q4.23-4.23,8.12-8.83t8.13-8.83a18.66,18.66,0,0,1,3.88-2.83,11.38,11.38,0,0,0,3.89-3.53q7.77-9.18,15.9-18.37t15.89-18.37a16.54,16.54,0,0,0,2.48-3.18,16.32,16.32,0,0,1,2.47-3.18,62.28,62.28,0,0,1,7.42-6.36c2.58-1.87,5.53-4.24,8.83-7.06a40.13,40.13,0,0,0-1.41,9.54A19.78,19.78,0,0,1,785.2,236q-5.66,14.15-11,28.27t-11.66,28.26q-6.35,16.26-11.3,32.85a165.12,165.12,0,0,0-6.36,33.56q-.7,8.47-1.06,16.25a54.29,54.29,0,0,0,1.41,15.19,38.51,38.51,0,0,0,6.36,13.78q4.59,6.36,14.49,10.6,8.48,3.54,7.06-3.54a16.15,16.15,0,0,1,.71-10.6c1.41-3.28,2.82-6.59,4.24-9.89q2.8-6.36,6-13.07a119.11,119.11,0,0,1,6.72-12.36,66.89,66.89,0,0,0,6-12.37q2.48-6.71,5.3-13.07a135.88,135.88,0,0,0,6.36-13.07,20.46,20.46,0,0,1,9.18-10.24,18.78,18.78,0,0,0,3.54-4.95q3.53-9.88,7.41-19.78T836.78,272q5.64-12.72,11-25.44t10.95-24.73c0-2.35.71-3.53,2.12-3.53,2.35,0,3.77-.71,4.24-2.12a36.13,36.13,0,0,1,2.12-4.94,97.58,97.58,0,0,0,7.42-19.79,67.18,67.18,0,0,1,8.12-19.07l1.42-3.54q-3.55-5.64-1.06-10.59a32.64,32.64,0,0,0,3.18-9.9,6.47,6.47,0,0,0,.7-4.94Q883.4,136.38,878.46,128.59Z" transform="translate(1365.91 228.83)"/><path class="cls-1" d="M1596.28,389.3a36,36,0,0,1-3.53,3.18,26.16,26.16,0,0,0-2.83,2.47q-6.35,5.67-12.36,11.66l-11.66,11.66q-7.07,7.07-13.78,13.42t-14.48,12.72q-14.15,12.72-29,24.73l-29.67,24q-7.79,7.06-15.9,13.78a152.09,152.09,0,0,1-17.31,12.36q-13.43,9.9-26.49,19.08T1392.1,556a175,175,0,0,1-38.86,19.08q-9.9,3.54-20.14,6.36a35.06,35.06,0,0,1-20.84-.71q-5.67-1.41-11.3-3.18t-8.48-9.54q-3.56-7.77-7.42-15.89a79.81,79.81,0,0,0-9.54-15.2q-9.9-12.71-4.24-26.84a18.42,18.42,0,0,0,.71-8.48c-.48-2.35-2.83-4.95-7.07-7.77a27.26,27.26,0,0,1,6-1.77,25.94,25.94,0,0,0,4.59-1.06q1.41-5.64,2.83-11.66a95.19,95.19,0,0,1,3.53-11.66,11.08,11.08,0,0,0,.35-4.59,5.13,5.13,0,0,1,1.06-3.88q4.24-9.88,9.19-20.14t9.89-20.84q3.53-6.36,6.71-12.72t6-13.42a49,49,0,0,1,3.53-7.07,13.62,13.62,0,0,0,2.12-7.06q-1.42-10.61,7.77-8.48,3.52-5.65,7.77-11.66t7.77-11.66q4.25-7.77,8.13-14.83a153.08,153.08,0,0,1,8.83-14.14,45.81,45.81,0,0,1,7.77-9.53,45.62,45.62,0,0,0,7.77-9.54q5.65-7.77,11-15.9t11-15.9a115.24,115.24,0,0,1,12.36-15.54q6.71-7,13.07-13.42,5.65-5.66,10.95-11.66t11-11.66a10.15,10.15,0,0,1,2.12-1.76,10.22,10.22,0,0,0,2.12-1.77q7.07-5.66,13.78-10.25a85.32,85.32,0,0,0,12.36-10.24,79,79,0,0,1,14.49-12.72q7.41-4.93,18-4.24a12.34,12.34,0,0,0,9.54-2.82,56.1,56.1,0,0,1,8.83-5.66,6.39,6.39,0,0,1,2.83-.7,6.21,6.21,0,0,0,2.83-.71,23.67,23.67,0,0,1,1.41,7.07Q1532,200.66,1520,232.45q-8.48,21.2-18.72,41.33a282.81,282.81,0,0,1-23.67,38.51q-8.49,12.72-17.31,25.43a111.85,111.85,0,0,1-20.85,22.61c-1.88,2.83-2.36,5.42-1.41,7.77a15.86,15.86,0,0,0,10.6,10.25q7.77,2.49,14.13-3.18a21.23,21.23,0,0,0,4.59-4.59,11.55,11.55,0,0,1,5.3-3.89,62.7,62.7,0,0,0,16.6-13.42,130.71,130.71,0,0,0,12.37-17,34.11,34.11,0,0,0,4.24-8.83,25.38,25.38,0,0,1,4.94-8.83,70.44,70.44,0,0,1,7.07-7.42q3.53-3.18,7.06-6.71a16.56,16.56,0,0,0,2.83-4.24c1.41-2.35,2.83-4.7,4.24-7.07a50,50,0,0,0,3.53-7.06,178.32,178.32,0,0,0,10.6-24A154.37,154.37,0,0,0,1554.6,236q2.81-9.89,5.3-19.43a180,180,0,0,0,3.88-19.43,22,22,0,0,0,.36-6.71c-.25-2.12-.6-4.35-1.06-6.71a84.08,84.08,0,0,1-1.42-15.19,38.91,38.91,0,0,0-2.82-14.48,59.86,59.86,0,0,0-8.48-11.66,38.92,38.92,0,0,1-7.77-12.37,55.65,55.65,0,0,0-5.3-9.53q-3.18-4.59-6.71-9.54-3.55-4.25-7.07-8.48a60.68,60.68,0,0,0-7.77-7.77q-9.9-9.18-20.84-8.83a75.75,75.75,0,0,0-21.55,3.88,79.2,79.2,0,0,0-29.68,17.67,279,279,0,0,1-26.14,21.9,90.83,90.83,0,0,0-12.72,12.36q-5.65,6.72-11.3,13.07-9.9,12-21.2,23.67a294.27,294.27,0,0,0-21.19,24.38q-14.14,19.07-27.91,38.5T1295.3,280.5a292.67,292.67,0,0,0-22.61,37.44q-7.77,14.15-14.83,29t-14.13,29.67a377.73,377.73,0,0,0-17.67,48.75,161.81,161.81,0,0,0-6,19.08,80.79,80.79,0,0,0-2.48,19.78,139.84,139.84,0,0,0,3.54,24q2.81,12,6.36,23.32a40,40,0,0,0,4.59,11,86.75,86.75,0,0,1,5.3,10.25,68,68,0,0,1,4.59,12q1.76,6.36,3.89,12.71c.93,2.83,3.53,5.19,7.77,7.07q2.81,1.43,5.3,2.83t3.88,6.35c.47.95,2.59,2.37,6.36,4.24a26.53,26.53,0,0,0,5.65,2.12,7,7,0,0,1,4.24,2.83,78.45,78.45,0,0,1,7.77,7.42,81,81,0,0,0,7.78,7.42,57.55,57.55,0,0,0,16.25,9.53q8.48,3.18,18.37.36a24.67,24.67,0,0,1,11-.36c3.53.71,7.17-.12,10.95-2.47a8.38,8.38,0,0,1,5.65-1.06,8.51,8.51,0,0,0,5.65-1.06,65.05,65.05,0,0,0,9.89-4.59,63.31,63.31,0,0,1,9.9-4.59,157.56,157.56,0,0,1,17.31-7.42,66.51,66.51,0,0,0,16.6-8.83q9.89-5.65,18.37-11.66t16.25-11.66c.94-2.35,1.64-4.24,2.12-5.65a8.72,8.72,0,0,1,2.12-3.53q4.93-2.82,9.89-5.3a33.43,33.43,0,0,0,9.89-8.13,121,121,0,0,1,17.66-16.95q9.88-7.77,19.79-16.25,12.7-11.3,24.37-22.26t23.67-23a116,116,0,0,0,12.37-14.49,165.21,165.21,0,0,1,11.65-14.48,20.89,20.89,0,0,0,5.3-6c1.17-2.13.82-4.35-1.06-6.72Q1601.92,400.61,1596.28,389.3ZM1308,279.44a13.53,13.53,0,0,0,3.53-2.48c.47.48.82.71,1.06.71s.59.24,1.06.71a10.89,10.89,0,0,0-1.76,3.88,11.53,11.53,0,0,1-1.77,3.89c-1-.47-2-.94-3.18-1.42a20.68,20.68,0,0,1-3.89-2.12A33.17,33.17,0,0,1,1308,279.44Z" transform="translate(1365.91 228.83)"/><path class="cls-1" d="M1984.87,344.08q2.81-5.64,6.36-11.3l7.06-11.31a86,86,0,0,1,6.36-7.06,21.55,21.55,0,0,0,4.95-7.07A83.62,83.62,0,0,1,2025.14,284a6.41,6.41,0,0,0,1.77-3.51,10.45,10.45,0,0,1,1.76-4.2c0-.46.71-1.4,2.12-2.8q5.65-3.48,7.42-12.58t-1.77-14.68a98.55,98.55,0,0,0-9.18-10.47q-5-4.9-9.89-10.49c-.95-.93-1.77-1.28-2.48-1.05a3.29,3.29,0,0,1-2.47-.35,21.63,21.63,0,0,0-3.88-2.1,21,21,0,0,1-3.89-2.1,16,16,0,0,0-5-2.09c-1.88-.46-3.06-1.17-3.53-2.12q-1.43-7.76-7.06-8.12a38.51,38.51,0,0,1-9.9-1.77q-2.12-1.4-4.94,1.42-4.95,2.82-9.19,5.3c-2.82,1.65-5.89,3.41-9.18,5.28-1,.94-2.59.71-5-.69v-2.12a27.52,27.52,0,0,1,5.66-2.12,43.81,43.81,0,0,1-4.95-2.83,22.57,22.57,0,0,1-3.53-2.82q-8.48-7.77-17.31-15.55t-17.31-15.54c-1.89-1.88-3.53-3.64-5-5.3a23,23,0,0,0-5.65-4.59q-7.79-7.06-15.54-13.43l-15.55-12.71q-14.83-12-30.38-23.32a85.06,85.06,0,0,0-36-14.84l-17.31,15.9A189.76,189.76,0,0,0,1771.5,135q-12,14.15-22.61,28.26t-20.49,28.26q-17.67,24-32.5,48.5-7.79,13.28-14.84,26.22t-14.84,26.32c-2.82,5.18-5.54,10.24-8.12,15.19s-5.3,10-8.13,15.19q-2.12,5-4.24,9.89l-4.23,9.89q-2.84,5.67-5.66,11.66T1630.9,366a48.66,48.66,0,0,0-2.12,6.36,51.33,51.33,0,0,1-2.12,6.36,18.57,18.57,0,0,1-1.77,2.83,12.66,12.66,0,0,0-1.77,3.53q-5.65,16.26-10.95,32.5t-9.53,33.21a147.13,147.13,0,0,0-2.83,69.94,48,48,0,0,0,2.12,7.42q1.41,3.9,2.83,7.42,3.52,7.79,7.77,15.19a25.69,25.69,0,0,0,12,11c.94.95,1.41,1.66,1.41,2.12a24.39,24.39,0,0,0,3.89,11.66,46.35,46.35,0,0,0,8.12,8.83c5.18,5.19,11.06,7.53,17.67,7.07s12-3.54,16.25-9.19a83.61,83.61,0,0,1,16.95-20.49,60.36,60.36,0,0,1,6.36-5.65q2.82-2.12,1.41-7.06a2,2,0,0,1,.36-2.48,3.38,3.38,0,0,1,2.47-1.06,11.76,11.76,0,0,0,8.13-8.12,16.47,16.47,0,0,1,7.41-9.54,45.7,45.7,0,0,0,9.54-11.66,78.29,78.29,0,0,1,8.83-12.36q5.65-7.06,11.66-13.43a144.53,144.53,0,0,0,11.66-14.13q4.93-6.36,10.24-12.71a31.14,31.14,0,0,0,6.72-15.55l.7-.7q8.48-9.89,16.61-19.79t15.89-19.78a6.66,6.66,0,0,0,1.77-3.89,26.58,26.58,0,0,1,1.77-6h2.82a4.77,4.77,0,0,0,3.53-1.41,52.32,52.32,0,0,0,5-5.66,70.16,70.16,0,0,0,4.24-6.36q5.64-6.35,10.95-12.36t11-12.36q6.36-7.06,13.07-13.78t13.07-13.78a104.22,104.22,0,0,0,9.89-11.3,106.36,106.36,0,0,1,9.9-11.31q6.35-7.05,13.07-13.77l13.77-13.78h2.83a2.79,2.79,0,0,1-.35,1.76,1.42,1.42,0,0,0-.36,1.06Q1917,296,1911.39,307t-11.31,22.26q-10.59,22.62-19.78,46.27t-17,48.4a314.67,314.67,0,0,0-12,45.92,95.92,95.92,0,0,0,3.54,47.34A222.24,222.24,0,0,0,1870.41,556a28.11,28.11,0,0,0,7.42,8.48A40.21,40.21,0,0,1,1886,573a63.49,63.49,0,0,0,5,7.06,15.05,15.05,0,0,0,8.48,5q5.64,2.12,11.66,4.24t12.36-2.12a10.28,10.28,0,0,1,6.36-2.12q4.23-2.12,2.12-3.89t-6.36-4.94a67.31,67.31,0,0,1-8.83-8.13,24.57,24.57,0,0,1-6-12.72c-.47-2.82-.83-6-1.06-9.53s-.35-7.18-.35-11a198.28,198.28,0,0,1,2.47-20.84q1.76-10.23,3.89-20.84a36.42,36.42,0,0,1,3.88-8.12,45.59,45.59,0,0,0,3.89-7.42,26.86,26.86,0,0,0,1.41-12.37q-.7-6.71,7.07-10.24l.7-1.42a8.08,8.08,0,0,1,.71-7.41,36.79,36.79,0,0,0,3.53-6.72,38.67,38.67,0,0,0,3.18-8.83q1.07-4.59,2.48-9.54a111.26,111.26,0,0,1,7.77-17.66q2.12-4.94,4.24-9.54a27.87,27.87,0,0,1,5.65-8.12,82.7,82.7,0,0,0,13.78-20.14Q1979.22,354.68,1984.87,344.08ZM1615.35,479.74a9,9,0,0,0-3.53-2.12,4.49,4.49,0,0,1-2.82-2.12q-5.67-10.61,6.35-19.08a8,8,0,0,1-.7,5.65,60,60,0,0,0-2.48,5.65,8.37,8.37,0,0,0-.35,5.3c.46,1.66,2.35,3.18,5.65,4.6Zm10.25-49.11q-1.77,4.61-3.89,8.83c-1,2.37-1.89,4.6-2.82,6.72s-1.89,4.36-2.83,6.71a4.06,4.06,0,0,1-2.83-.71,41.48,41.48,0,0,0-.35-4.94,7,7,0,0,1,1.06-4.95,100.3,100.3,0,0,1,7.77-16.25,13.24,13.24,0,0,1,3.54-2.47,38.74,38.74,0,0,0,4.23-2.48Q1627.36,426,1625.6,430.63ZM1635.84,407a60.3,60.3,0,0,1-3.18,6.72,57.55,57.55,0,0,0-3.18,6.71,13.34,13.34,0,0,0-3.53-2.47,9.17,9.17,0,0,1-3.53-3.18c2.83-1.88,5.18-3.54,7.06-4.95q-2.82-2.82-2.12-5c0-1.87,1.18-3.53,3.54-4.94a4.77,4.77,0,0,1,4.24,2.12A3.92,3.92,0,0,1,1635.84,407Zm5-14.83a4,4,0,0,0-1.41,2.82,4.08,4.08,0,0,1-1.42,2.83c0,.47-.47.6-1.41.35s-1.41-.58-1.41-1.06a15.6,15.6,0,0,1-2.12-4.59c-.48-1.65-.25-2.7.7-3.18a12.39,12.39,0,0,0,3.54-9.18q0-5.65,6.35-7.78c1.88,0,2.12-.7.71-2.12-1-3.76-.47-6.94,1.41-9.53a62,62,0,0,1,6.36-7.42,2,2,0,0,0,.71-1.42,5.39,5.39,0,0,1,.71-2.12q1.4-7.05,3.18-14.13t9.53-12a2.38,2.38,0,0,0,.71-1.76,5.62,5.62,0,0,1,.71-2.48q4.93-7.75,9.18-14.48t9.19-13.78a6.17,6.17,0,0,1,2.82-1.76,6.21,6.21,0,0,0,2.83-1.77c0,.48.46,1.18,1.41,2.12-1,1.89-1.76,3.65-2.47,5.3s-1.54,3.42-2.47,5.3a191.82,191.82,0,0,0-11.31,17.66,3.35,3.35,0,0,0-1.06,3.18,3.38,3.38,0,0,1-1.06,3.18,105.53,105.53,0,0,0-9.18,18.72q-3.55,9.54-7.07,19.43a63.06,63.06,0,0,1-6.36,10.25q-3.54,4.6-7.06,10.24a15.84,15.84,0,0,0-2.12,4.59A16.6,16.6,0,0,1,1640.79,392.13Zm50.52-75.25c-.25.71-2.48,2.47-6.72,5.3q.71-2.82,1.42-4.95t1.41-4.23C1690.25,314.88,1691.54,316.17,1691.31,316.88Zm-12.37,57.58a43.24,43.24,0,0,1-9.18,7.07,1.47,1.47,0,0,0-.36-1.06,1.41,1.41,0,0,1-.35-1.06,29.59,29.59,0,0,1,5-7.77,4.37,4.37,0,0,1,1.76-1.06,4.44,4.44,0,0,0,1.77-1.06c.46,1,.94,1.89,1.41,2.82S1679.4,374,1678.94,374.46Zm-33.21,69.24a2.88,2.88,0,0,1-2.12-.7,26.33,26.33,0,0,0,1.77-6.36,25.68,25.68,0,0,1,1.77-6.36,5,5,0,0,1,2.12.35,2.93,2.93,0,0,0,1.41.36q-1.42,3.54-2.47,6.35T1645.73,443.7ZM1760.9,426c2.35-4.7,4.12-7.3,5.3-7.77s2.93.47,5.3,2.82Q1767.95,422.52,1760.9,426Zm10.6-8.48c-1.89-3.29-2.6-5.18-2.12-5.65a19.73,19.73,0,0,1,3.53-4.24,10.42,10.42,0,0,0,1.77,1.41,2.41,2.41,0,0,1,1.06,2.12C1774.79,412.62,1773.37,414.74,1771.5,417.56Zm91.84-88.31a12.5,12.5,0,0,0-1.41-3.54,40.41,40.41,0,0,1,4.24-2.47,38.73,38.73,0,0,0,4.24-2.47,3,3,0,0,0,.35,1.41,3.14,3.14,0,0,1,.36,1.41,2,2,0,0,0,.7,1.42Zm63.59-76.31q-14.84,14.83-29.67,29a3,3,0,0,0,.35,1.41,3.26,3.26,0,0,1,.35,1.41q3.54-.69,6.72-1.06a62.14,62.14,0,0,1,6.71-.35q-5,8.48-12,4.24a10.86,10.86,0,0,0-8.83,1.06,17,17,0,0,0-6.72,6,20.66,20.66,0,0,1-3.88,5.29,50.25,50.25,0,0,0-4.59,5.3l-4.24,5.66a24.91,24.91,0,0,1-4.95,4.94,8.72,8.72,0,0,1-3.53,2.12,8.85,8.85,0,0,0-3.53,2.12,60,60,0,0,0-2.48,5.65,13.5,13.5,0,0,1-3.18,5l-11.3,11.3-11.31,11.31a41,41,0,0,0-8.47,13.42c-1.42,3.3-3.3,4.95-5.66,4.95q-5.65-1.41-6.35,4.94a11.2,11.2,0,0,1-2.83,4.24,28,28,0,0,0-3.53,4.24c-2.83,3.3-5.55,6.48-8.13,9.54s-5.3,6-8.12,8.83a6.94,6.94,0,0,1-6.36,3.53c-.48.48-1.06.48-1.77,0a10.74,10.74,0,0,1-1.77-1.41,2.09,2.09,0,0,1-.35-2.12,4.49,4.49,0,0,1,1.06-2.12l4.24-2.82,4.24-2.83v-2.83a6.17,6.17,0,0,1,.71-2.82q4.23-5.65,8.12-10.25c2.58-3.06,5.3-6.24,8.13-9.54a16.64,16.64,0,0,1,4.24-2.82,47.26,47.26,0,0,0,5.65-1.42c1.41-.46,1.64-2.35.7-5.65,0-.46.47-.94,1.42-1.41a8.16,8.16,0,0,0,2.12-1.41c.94-1.42,1.87-2.83,2.82-4.24a22.7,22.7,0,0,1,2.83-3.54,71.79,71.79,0,0,1,6.36-7.06c3.76-4.7,7.65-9.19,11.66-13.42s8.12-8.71,12.36-13.43a94.88,94.88,0,0,1,7.42-9.18,69.64,69.64,0,0,0,7.42-9.89q-58.12,60.06-112.72,122.58A1564.06,1564.06,0,0,0,1652.8,551.8q-2.11-5.64-2.12-7.06a72.77,72.77,0,0,1-1.06-16.25,53.42,53.42,0,0,1,3.18-16.25,7.15,7.15,0,0,0,.71-3.18,7.07,7.07,0,0,1,.7-3.18q.63-7.06,1.6-13.43a25.24,25.24,0,0,1,5.47-12,2.74,2.74,0,0,0,.7-3.18,10.34,10.34,0,0,1-.7-3.88q5.65-.7,7.07-4.95c1-2.82,1.89-5.65,2.84-8.48q7.1-15.52,13.46-30.73t13.46-30.73q5.66-12.72,11-24.73a229.69,229.69,0,0,1,12.4-24,177.5,177.5,0,0,1,12.74-21.54q7.08-10.24,13.45-20.85a17.38,17.38,0,0,0,2.13-4.24,17.69,17.69,0,0,1,2.12-4.24q3.55-4.92,6.74-9.53t6.72-10.25l1.43-.7a87.84,87.84,0,0,1,7.78-10.6,35.6,35.6,0,0,0,6.38-10.6,21.13,21.13,0,0,1,7.79-9.54,30.93,30.93,0,0,0,8.5-8.12,32.14,32.14,0,0,1,5.66-5.66,54.06,54.06,0,0,0,5.67-4.94q9.9-10.6,19.12-21.2t19.13-20.49a56.29,56.29,0,0,1,14.87-10.59q2.83-1.41,7.09,1.41a206.74,206.74,0,0,1,16.64,12.36,198.87,198.87,0,0,0,16.64,12.37,16.1,16.1,0,0,0,4.61,2.12,16.32,16.32,0,0,1,4.6,2.12,21.73,21.73,0,0,1,6,3.53,25.74,25.74,0,0,0,5.32,3.53,61.15,61.15,0,0,1,6.72,3.18,57.85,57.85,0,0,0,6.73,3.18,17.33,17.33,0,0,0,4.24,2.12c1.42.47,3.32,1.18,5.68,2.12q-12,9.9-23,19.43t-22.26,19.43A12.45,12.45,0,0,0,1910,260l7.06-7.07q9.89-7.77,19.08-15.54t19.07-15.55c0,.48.47,1.18,1.42,2.12Q1941.76,238.12,1926.93,252.94Z" transform="translate(1365.91 228.83)"/><path class="cls-1" d="M2367.8,159l-1.41,1.42c.47-.47.82-.71,1.06-.71s.59-.23,1.06-.71l1.41-1.41c-.47.47-.82.71-1.06.71S2368.27,158.51,2367.8,159Z" transform="translate(1365.91 228.83)"/><path class="cls-1" d="M2507.7,232.1q2.12-10.95,3.53-22.26a35,35,0,0,0-1.77-14.83,32.37,32.37,0,0,1-1.76-14.13q.69-10.6-3.89-17.67a83.72,83.72,0,0,0-10.95-13.42l-2.83-4.24a15.44,15.44,0,0,1-2.12-5q-3.54-26.13-30.38-24a144.32,144.32,0,0,0-46.63,14.48,259,259,0,0,0-41,26.5l9.9-5.65q4.93-2.82,10.59-5.66,5.65-3.52,10.25-6.35t9.54-5.66a2.54,2.54,0,0,1,2.82.36,17.73,17.73,0,0,0,2.83,1.76q-1.42,2.83-2.83,3.54a30.54,30.54,0,0,1-11.66,4.94q-6.72,1.42-8.12,11.31a2.06,2.06,0,0,1-1.41.7h-1.42a63.24,63.24,0,0,0-27.55,16.61,146.53,146.53,0,0,1-25.44,20.84,60.72,60.72,0,0,0-15.89,14.13A191,191,0,0,1,2307,224.68a82.27,82.27,0,0,0-8.12,9.54,34.37,34.37,0,0,1-9.54,8.83q-17,11.31-22.61,29-2.11,5.66-8.48,9.18a24.8,24.8,0,0,1-12,3.53c.47-1.41.94-2.93,1.42-4.59s.93-3.64,1.41-6q-3.54,4.23-6,7.42c-1.65,2.11-3.42,4.36-5.3,6.71a100.47,100.47,0,0,0-11.3,13.42,7.32,7.32,0,0,1-1.77-1.06,8.93,8.93,0,0,0-1.76-1.06,22.34,22.34,0,0,0,.7-5.3,5.23,5.23,0,0,1,1.42-3.88q15.52-22.61,29-43.1,12-17.65,23.32-35.68T2295.74,183a85.74,85.74,0,0,0,2.12-9.18c.46-2.83-1.66-5.41-6.36-7.77a1.58,1.58,0,0,1-.35-1.77,8,8,0,0,0,.35-2.47q4.24-12-6.36-16.25c-1.41,0-2.12-.94-2.12-2.83q0-4.93-3.53-6.71t-7.07-3.18a14.13,14.13,0,0,1-5.65-3.88,14.32,14.32,0,0,0-5.65-3.89c-1.89-.94-3.66-1.77-5.3-2.47a35,35,0,0,0-5.3-1.77q-7.79-1.41-16.6-2.12t-19.43-2.12a49.84,49.84,0,0,1-4.24,6.71c-1.89,2.6-3.78,5.3-5.65,8.13q-4.24,8.47-8.83,17.31t-9.54,18q-7.08,13.44-18,33.92t-17.31,34.62q-9.9,19.08-18.37,38.5t-17.66,38.51q-1.42,4.95-3.18,9.54t-3.89,9.54q-3.54,9.9-8.12,19.78t-8.83,20.49a147.62,147.62,0,0,0-6,17.31,152.05,152.05,0,0,1-6,17.31q-6.35,17.67-12.71,35.32T2052,476.2a13,13,0,0,1-4.24,5.66,45.3,45.3,0,0,0-5,4.23q-18.36,9.92-30.38,5a20.9,20.9,0,0,1-8.12-5.3,88.28,88.28,0,0,1-6.72-7.42,70.45,70.45,0,0,1-3.53-10.6,105.61,105.61,0,0,0-3.53-11.3c0-.94-.71-2.12-2.12-3.53-3.77-1.42-5.88-3.53-6.36-6.36a52.74,52.74,0,0,1-.71-8.48c.48-2.83,1.06-5.76,1.77-8.83a39.08,39.08,0,0,0,1.06-8.83,56.62,56.62,0,0,0,1.06-14.13,120.5,120.5,0,0,1,.35-15.55,32.62,32.62,0,0,1-3.53,3.18,7.2,7.2,0,0,0-2.12,2.48,164.34,164.34,0,0,0-12.36,28.26Q1963,438.76,1966.5,455q2.12,9.9,4.94,19.78a131.86,131.86,0,0,0,7.07,19.08,131,131,0,0,0,21.19,27.9,179.51,179.51,0,0,0,26.85,23l1.41,2.82a8,8,0,0,0-.7,3.53,45.53,45.53,0,0,0-2.47,6c-.71,2.12-1.53,4.36-2.48,6.71q-3.52,14.15-7.06,27.2t-7.07,27.2q-3.53,16.24-7.42,31.45t-6.71,31.44q-2.11,16.24-3.53,33.2a264.9,264.9,0,0,0-.71,33.21q.72,18.36,2.83,36.74t5.65,36a114.56,114.56,0,0,0,7.42,20.14A212.17,212.17,0,0,0,2016,859.14a37.34,37.34,0,0,0,8.48,9.54,36.3,36.3,0,0,1,8.48,9.54q7.78,10.59,21.2,10.6a17.09,17.09,0,0,0,3.18-.36,3.35,3.35,0,0,1,3.18,1.06q3.53,4.25,7.41,3.18a39.84,39.84,0,0,0,8.84-3.88,27.24,27.24,0,0,1,8.83-3.18c3.53-.71,5.76-2.25,6.71-4.6a236.1,236.1,0,0,0,13.07-20.49,153.88,153.88,0,0,0,10.24-21.9c1.42-1.89,1.53-4.24.36-7.06s-2.24-5.66-3.18-8.48c-1.89,1.41-3.78,2.7-5.65,3.88s-3.78,2.48-5.66,3.89q-7.79,5.64-14.48,11.3t-14.48,11.31a10.67,10.67,0,0,1-10.6,0c-1,0-1.3-1-1.06-2.83a11.41,11.41,0,0,0-.35-4.94q.69-9.9,1.41-19.08t-5-14.84c.47-3.77.94-7.06,1.42-9.89s.93-5.42,1.41-7.77q.69-8.48,1.06-17a137.2,137.2,0,0,1,1.76-16.95,80.46,80.46,0,0,1,2.48-12.72,47.64,47.64,0,0,0,1.76-12.72,34.45,34.45,0,0,0,.36-8.48c-.25-2.82-.6-5.65-1.06-8.47,1.41-2.37,2.93-5,4.59-7.78s3.41-5.65,5.3-8.48a10.34,10.34,0,0,0-2.12-1.76,5.72,5.72,0,0,1-1.41-1.06,14.7,14.7,0,0,1-2.83-3.53q8.47-7.79,9.18-11.66t-6.35-9.54q4.93-7.06,10.59-17a4.91,4.91,0,0,1-1.41-4.94c.94-2.83,1.88-5.65,2.83-8.48a9.37,9.37,0,0,0-1.42-8.48c-.47-.47-.24-1.18.71-2.12a10.72,10.72,0,0,1,2.83-2.12,4.78,4.78,0,0,1,3.18-.35c.54.11.9.19,1.09.25.92-2.78,1.74-5.11,2.44-7s1.52-4,2.47-6.36a18.7,18.7,0,0,0,.71-5.65,32.05,32.05,0,0,0-.36-4.6,9.72,9.72,0,0,1,.36-4.59q2.82-7.78,5.65-15.54a92.48,92.48,0,0,0,4.24-16.25q1.41-7.77,10.6-8.48,11.3-.69,22.61-1.77a178.82,178.82,0,0,0,46.63-10.24q12-4.25,24.73-7.77,10.59-3.52,21.54-7.42t21.55-8.83a48.33,48.33,0,0,0,12.72-9.19,29.75,29.75,0,0,1,13.43-7.77,33.79,33.79,0,0,0,12.71-5.3,76,76,0,0,1,12-6.71A37.38,37.38,0,0,0,2319.05,485a22,22,0,0,1,15.55-9.54c.94,0,1.76-.71,2.47-2.12a13.4,13.4,0,0,1,2.47-3.54,27.21,27.21,0,0,0,3.89-4.94,13.67,13.67,0,0,1,3.89-4.24q4.93-3.53,10.24-6.71a45.65,45.65,0,0,0,8.83-6.71q5.66-5.65,11-11.31t10.25-11.3l19.78-21.2q9.89-10.59,19.78-21.19,7.77-9.9,15.55-19.43t15.54-19.43q6.36-9.18,13.78-18a49.55,49.55,0,0,0,10.24-20.84,8.91,8.91,0,0,1,3.53-4.95,12.9,12.9,0,0,0,4.24-5.65q3.53-9.89,7.07-19.78t6.36-19.79Q2505.57,243.06,2507.7,232.1ZM2006.06,755.63a27.08,27.08,0,0,0-2.82,2.48,50.76,50.76,0,0,1-2.12-6.36,26.67,26.67,0,0,0-2.12-5.65,17.71,17.71,0,0,1,2.47-1.06,4.73,4.73,0,0,0,1.77-1.06c1,1.87,1.76,3.53,2.47,4.94a32.37,32.37,0,0,1,1.77,4.24A3,3,0,0,1,2006.06,755.63Zm27.56-131.06a143.48,143.48,0,0,1-3.89,17,162.07,162.07,0,0,0-3.88,16.25Q2023,669.08,2020.9,680a137.86,137.86,0,0,1-6.36,22.25,42.13,42.13,0,0,0-3.88,15.55,116.09,116.09,0,0,1-1.77,15.54,8.53,8.53,0,0,1-.71,3.18c-.46,1.17-.94,2.47-1.41,3.88-3.77-4.71-5.76-8.24-6-10.59s1.31-5.42,4.6-9.19a19.15,19.15,0,0,1-3.89-9.54c-.23-3.07,2-6.24,6.71-9.54q-5.64-3.54-3.88-7.06a15.65,15.65,0,0,0,1.76-7.06,29.41,29.41,0,0,1,2.12-17,64.73,64.73,0,0,0,5-16.25,173.12,173.12,0,0,1,3.88-18.37q2.49-9.2,5.3-19.08,2.84-12,5.3-23.67t6-23.67q2.12-4.94,3.88-9.53t3.89-9.54c.46-.94,1.64-1.65,3.53-2.12s3.06-.23,3.53.71a36.48,36.48,0,0,0,3.54,5.65,6.56,6.56,0,0,1,1.41,5.65,86.19,86.19,0,0,1-3.18,9.18,83.57,83.57,0,0,0-3.18,9.19q-3.54,11.31-6.71,22.61T2033.62,624.57Zm18.72,47.34c-.71,2.83-1.53,5.65-2.47,8.48a91.66,91.66,0,0,1-3.18,10.24q-1.77,4.59-3.18,9.54a5.39,5.39,0,0,1-1.77,2.12,16.81,16.81,0,0,0-2.47,2.12,23.22,23.22,0,0,1-1.41-5.65c0-3.78.12-7.42.35-11a62.77,62.77,0,0,1,1.77-10.95,21.75,21.75,0,0,1,4.59-7.78,67.39,67.39,0,0,0,6-7.77,8.18,8.18,0,0,1,1.77,1.06,7.67,7.67,0,0,0,1.77,1.06C2053.63,666.26,2053.05,669.08,2052.34,671.91Zm1.77-70.3a42.58,42.58,0,0,0-3.54,8.83q-2.12-3.54-1.41-12t2.83-9.89a2.42,2.42,0,0,1,1.76-.71c.71,0,1.06.25,1.06.71,1.88,1.89,2.83,3.77,2.83,5.65A72,72,0,0,1,2054.11,601.61Zm185.11-308.75q3.53-3.87,7.06-7.42,1.41,7.06-2.12,12T2231.45,301C2234.27,298.16,2236.85,295.45,2239.22,292.86Zm-121.53,92.91a177.38,177.38,0,0,1-8.47,20.84q-4.95,10.25-9.9,20.84-1.41,4.95-2.47,9.89t-2.47,9.9q-3.54,8.47-7.07,17.31a132.43,132.43,0,0,1-8.48,17.31c-.94,1.41-2.82,2.24-5.65,2.47a65.27,65.27,0,0,0-9.89,1.76q2.11-5.64,4.24-10.24a89.15,89.15,0,0,0,3.53-8.83,38.29,38.29,0,0,0,2.12-4.95c.47-1.41,1.17-3.29,2.12-5.65q5.65-12,10.6-24.73t9.89-25.43q4.93-12,9.19-24.38t9.18-24.37a147.66,147.66,0,0,1,6.71-15.55q3.89-7.75,7.42-15.54,5.65-14.13,12-27.2T2153,272q3.53-7.77,7.42-15.55t7.42-15.54a16.11,16.11,0,0,1,3.18-2.47,16.76,16.76,0,0,0,3.18-2.48,10.36,10.36,0,0,0,.7,3.89,3.75,3.75,0,0,1,0,3.18q-4.23,9.9-8.48,20.14T2158,284q-2.13,5.66-4.6,11.66t-4.59,12.36a37.42,37.42,0,0,0-2.82,3.18,12.1,12.1,0,0,0-2.12,3.89,30.4,30.4,0,0,0-3.18,3.88c-1.19,1.66-1.31,2.95-.36,3.89q1.41,6.36-1.41,10.95a38.12,38.12,0,0,0-4.24,9.54q-4.24,10.59-8.12,21.19T2117.69,385.77ZM2307,423.21a18.89,18.89,0,0,0-4.94,3.54q-7.79,6.36-16.25,13.07t-16.25,13.77h-1.42c-.94,3.78-2.47,6.48-4.59,8.13a25.56,25.56,0,0,1-7.06,3.89,74.4,74.4,0,0,1-8.48,2.47,15.06,15.06,0,0,0-7.42,3.88,89.7,89.7,0,0,1-14.13,10.25q-7.78,4.6-15.54,8.83a17.29,17.29,0,0,1-5.3,1.77,26.75,26.75,0,0,0-4.6,1.06,4.8,4.8,0,0,1-3.18.35,2,2,0,0,0-2.47,1.06q-4.23,7.79-12.36,8.12a31.86,31.86,0,0,0-15.19,4.6,29.27,29.27,0,0,0-6,3.18,39.34,39.34,0,0,1-5.3,3.18q-6.36,2.11-12.36,3.53t-11.66,2.82c-1,.48-1.65.36-2.12-.35a5.39,5.39,0,0,0-2.12-1.77q9.89-4.23,19.08-8.47t18.37-7.78q14.12-5.64,28.26-10.24a58.11,58.11,0,0,0,24.73-15.9A8.48,8.48,0,0,1,2223,473a23.73,23.73,0,0,0,4.94-2.47,118.08,118.08,0,0,0,25.79-14.13q11.65-8.48,23-17.66,9.18-7.06,18-13.78t18.72-14.48Q2316.93,421.09,2307,423.21Zm-137.77,55.11a432.06,432.06,0,0,0,72.07-40.62q33.91-23.67,67.12-49.81a12,12,0,0,1,2.12,2.82c-2.37,2.37-4.84,5-7.42,7.78a57.17,57.17,0,0,1-8.83,7.77q-16.26,12-32.86,23.67t-32.85,23.66a87.34,87.34,0,0,0-10.6,7.78q-5,4.23-10.6,8.47-2.82,2.13-11.3,4.24a27.12,27.12,0,0,1-6.36,2.83,29.68,29.68,0,0,1-5.3,2.12,16.13,16.13,0,0,0-4.59,2.12,17,17,0,0,1-6,2.47C2172.21,483.86,2170.68,482.1,2169.27,478.32Zm171.56-88.67q-3.61,3.18-7.25,6.72c.49.95,1.69,2.82,3.63,5.65-2.42,1.41-4.6,2.71-6.53,3.88a41.75,41.75,0,0,1-6.53,3.18c-1,.48-1.94,0-2.91-1.41a24.42,24.42,0,0,0-2.89-3.53q6.53-5.65,13.06-12t13.79-12.72a14.67,14.67,0,0,0,2.82,3.53Q2344.47,386.48,2340.83,389.65ZM2366,364.22q-4.61,7.41-9.54,14.48c-1.41,1.42-3.3,1.66-5.65.71a7.24,7.24,0,0,1-1.42-2.47,3.75,3.75,0,0,1,0-3.18q4.25-5.65,8.84-12t9.53-12l8.48-1.41Q2370.63,356.8,2366,364.22Zm76.3-195a16.52,16.52,0,0,1-7.42,9.54c-1.41.94-2.71,2.94-3.88,6s-1.3,5.07-.35,6q5.64,7.78,3.18,14.13c-1.66,4.24-3.18,8.24-4.6,12a314.07,314.07,0,0,1-23,44.16A399.82,399.82,0,0,1,2377.7,301a495.58,495.58,0,0,1-62.18,63.59q-19.79,17.67-39.92,33.92a361.15,361.15,0,0,1-42.74,29.67q-14.15,7.79-28.62,14.48t-30.73,14.49a31.38,31.38,0,0,0,.71-5.66,7.9,7.9,0,0,1,.7-3.53q9.18-14.83,17.67-29.67t18.37-29q8.48-12.72,18-24.73a210.33,210.33,0,0,0,17.31-25.43,181.61,181.61,0,0,1,21.55-30.38,244.13,244.13,0,0,0,22.26-29.68A231.62,231.62,0,0,1,2305.28,260q8.11-9.18,16.6-17.67a152.5,152.5,0,0,0,13.78-14.13q6-7.05,13.07-14.13a24.08,24.08,0,0,1-2.47-2.82,37.15,37.15,0,0,0-3.18-3.54,51.08,51.08,0,0,1,8.47-4.59q4.24-1.75,8.48-3.89a11.19,11.19,0,0,1,4.24-1.76,3.53,3.53,0,0,0,2.83-1.77,47.77,47.77,0,0,1,11.66-15.54,65.47,65.47,0,0,1,16.6-9.89,70.11,70.11,0,0,0,12.36-8.83q6-5.31,11.66-10.25c2.35-1.41,4.7-2.7,7.07-3.89l6.35-3.17c1.42,2.36,2.71,4.59,3.89,6.71a61.87,61.87,0,0,1,3.18,6.71C2442.7,161.33,2443.51,165.22,2442.34,169.22Z" transform="translate(1365.91 228.83)"/><path class="cls-1" d="M2090.88,630.83l0,.1C2091.09,630.93,2091.1,630.9,2090.88,630.83Z" transform="translate(1365.91 228.83)"/><path class="cls-1" d="M2353,168.86q-7.78,5.67-15.55,12.37t-15.54,13.07a11.43,11.43,0,0,1,2.12,2.82,263.22,263.22,0,0,1,20.84-18.72q10.95-8.82,21.55-18a36.41,36.41,0,0,0-6.71,3.53C2357.56,165.33,2355.32,167,2353,168.86Z" transform="translate(1365.91 228.83)"/><path class="cls-1" d="M2680.8,182.72q3.52-4.25,7.06-8.14c2.35-2.59,4.95-5.54,7.77-8.85a27.33,27.33,0,0,1,.36-3.9,6.56,6.56,0,0,1,1.76-3.89q5.65-3.56,7.07-8.15t2.82-8.86a29.63,29.63,0,0,0,2.83-8.5,16.46,16.46,0,0,1,2.12-6.37q-1.43-2.11-2.83-4.25c-1-1.41-1.18-2.59-.7-3.54a8,8,0,0,1,2.82-2.83,23.3,23.3,0,0,0,3.54-2.83,50,50,0,0,0,5.65-6.38q5.64-3.54,6.36-5.66c.46-1.41,0-4.49-1.42-9.21a48.15,48.15,0,0,1,4.95-2.83c1.88-1,2.58-1.89,2.12-2.84a10.89,10.89,0,0,1,3.18-9.56,21.23,21.23,0,0,0,5.3-8.14c.46-1.42,1.87-5.31,4.24-11.7s4.82-13.09,7.41-20.18,5.06-13.57,7.42-19.48,3.54-9.32,3.54-10.27q12-1.41,22.61-2.47a204.63,204.63,0,0,1,20.48-1.06q24.73,1.42,49.11.71a162.37,162.37,0,0,1,47.69,5.65,72.84,72.84,0,0,0,19.07,3.18,184.09,184.09,0,0,0,19.79-.35q8.48-.7,16.95-1.77a87.79,87.79,0,0,0,17-3.89c2.35-.94,4.59-2.93,6.71-6a22.26,22.26,0,0,0,3.89-8.83,27.69,27.69,0,0,0,.35-11.66,71.69,71.69,0,0,1-1.06-12.37A28.55,28.55,0,0,0,2982.84-47a52.8,52.8,0,0,0-9.54-12,56.91,56.91,0,0,0-12.37-8.83,57.2,57.2,0,0,0-12.36-5,74.78,74.78,0,0,0-16.6-2.47A117.45,117.45,0,0,1,2915.36-77a176.24,176.24,0,0,0-49.45-4.24l-49.46,2.83q-9.19,0-8.48-7.07A59.84,59.84,0,0,0,2819.28-101q5.64-9.89,11.3-19.08t11.3-19.07l1.42-.71q7.75-5.64,11.3-12t-2.12-14.84v-2.82q3.53-4.94,3.53-9.54a18.1,18.1,0,0,0-1.76-8.13,41.31,41.31,0,0,0-4.59-7.06,61.4,61.4,0,0,1-4.95-7.07,31.71,31.71,0,0,0-11.66-11.3c-4.94-2.83-9.78-5.88-14.48-9.19a4.14,4.14,0,0,0-2.83-1.41,6.22,6.22,0,0,1-2.82-.7,124.24,124.24,0,0,0-12.37-2.12,91,91,0,0,1-11.66-2.12,20.26,20.26,0,0,0-11.3.35q-5,1.77-8.48,8.83-5,9.9-9.89,20.14t-9.89,20.13l-46.63,106q-2.84,7.08-9.89,8.48-14.14,3.54-27.91,6T2637-53q-14.14,2.84-27.2,4.6t-27.2,4.59q-13.43,2.84-26.5,6t-26.49,6q-18.37,4.24-37.09,7.77t-37.1,8.48q-14.11,3.54-27.2,8.13t-26.49,8.83a132.21,132.21,0,0,0-33.92,15.89q-15.53,10.26-24,29.32l7.77,7.78q7.78-1.41,14.84-2.83t14.84-2.83q9.9-1.39,19.43-2.82t19.43-3.53q14.14-3.54,27.91-7.07t27.9-7.06c2.83-.94,4.49-.71,4.95.7q6.36,5.67,13.42,4.24c4.72-.94,9.42-1.64,14.13-2.12a116.85,116.85,0,0,0,27.2-6,50.74,50.74,0,0,1,27.21-1.77,11.28,11.28,0,0,0,4.94-1.41c2.83-.94,5.53-1.77,8.13-2.48s5.3-1.29,8.12-1.76A99.75,99.75,0,0,1,2595,15.55a34.88,34.88,0,0,0,11-3.53q3.54-1.41,10.25-3.54t10.24,4.24a30.78,30.78,0,0,0,6.72-2.12c2.12-.94,3.64-.94,4.59,0a13.15,13.15,0,0,0,9.54,4.24,88.68,88.68,0,0,1,11,.71q2.11,0,.7,7.77a169,169,0,0,1-4.24,17.31q-2.82,9.54-6,18.37t-3.89,11q-5.66,14.14-11.65,28.61t-11.66,28.62q-4.95,12-9.89,24.73t-9.89,25.43q-3.55,9.19-7.07,18t-7.07,18q-8.47,24.74-17,49.1t-17,49.1q-4.24,12.72-8.48,25.08t-7.77,25.09q-10.59,37.46-19.08,74.18-3.54,17-6.35,33.91t-6.36,33.92a77.22,77.22,0,0,0-1.77,12.72,79.46,79.46,0,0,1-1.77,12.71c-.94,4.72-1.87,9.43-2.82,14.13a75.79,75.79,0,0,0-1.41,14.84q0,12,.35,24.73t1.77,25.43a34.82,34.82,0,0,0,3.53,11.31q2.8,5.64,5.65,12-4.24,4.25,0,6.71a12.47,12.47,0,0,1,5.65,6q1.41,4.23,3.18,9.18t5.3,6.36a38.88,38.88,0,0,1,13.78,7.77q6.7,5.66,18,2.12a39.47,39.47,0,0,0-3.37-3.88l-2.63-2.48a29,29,0,0,1-7-12.36q-1.8-6.72,1-15.19a20.82,20.82,0,0,0,1.42-7.77,26.41,26.41,0,0,1,1.41-8.48,24.45,24.45,0,0,0,0-11.66,106.64,106.64,0,0,1-2.12-11.66,13.14,13.14,0,0,1,.71-4.24c.47-1.41.95-2.82,1.43-4.24a126.42,126.42,0,0,1,3.57-13.71,28.62,28.62,0,0,0,1.42-12.32c-.48-3.75,0-6.56,1.43-8.44A59.26,59.26,0,0,1,2558,547a9.43,9.43,0,0,1,3.2-2.11,4.52,4.52,0,0,0,2.51-2.1q1.43-4.94,2.85-10.2t2.86-10.91q1.43-9.84,2.85-20.4t3.56-21.11a57,57,0,0,1,3.57-10.2,58.55,58.55,0,0,0,3.57-10.2,91.68,91.68,0,0,0,4.28-15.83q1.43-8.09-2.85-17.23l4.27-1.42a38.75,38.75,0,0,0,5-2.11,7.16,7.16,0,0,1-1.79-3.18,16.45,16.45,0,0,0-1.07-3.17l5.71-1.42c1.9-.46,3.09-1.17,3.57-2.12a119.79,119.79,0,0,0,5-11.3c1.42-3.77,2.84-7.53,4.28-11.31a2.3,2.3,0,0,0-.72-2.82,4,4,0,0,1-1.42-2.83q-1.42-2.82-2.85-6a6.69,6.69,0,0,1,0-6,35.21,35.21,0,0,1,3.92-7.07c1.65-2.35,3.2-4.47,4.63-6.35-1.43-1.88-2.85-3.65-4.28-5.3a44,44,0,0,1-4.27-6,7.8,7.8,0,0,0,2.49-.35,6.07,6.07,0,0,1,1.78-.35,26.86,26.86,0,0,1,4.28.35,25.77,25.77,0,0,0,4.29.35,38.16,38.16,0,0,0,1.42-8.48,7,7,0,0,0,.71-3.18,7,7,0,0,1,.71-3.18q1.39-5.64,3.53-11.65t3.53-11.66a70.51,70.51,0,0,1,1.77-8.83q1.05-3.88,8.12-3.89a84.17,84.17,0,0,0-9.18-2.47l-2.83-2.47q0-2.13,2.83-3.55a58.33,58.33,0,0,0,6.71-3.18,59.26,59.26,0,0,1,6.71-3.19,44.51,44.51,0,0,0-4.24-7.79,20.31,20.31,0,0,1,9.19-2.12c3.29,0,4.24-2.12,2.82-6.38a25.11,25.11,0,0,1-2.47-2.83,26.16,26.16,0,0,0-2.47-2.83q2.8-2.13,5.3-4.26t6-5.66a11.89,11.89,0,0,1,.35-12.75q3.89-6.37,13.78-12h-7.42a33.54,33.54,0,0,1-6.71-.71,11.32,11.32,0,0,1,6-5q3.87-1.39,7.77-3.18a12.51,12.51,0,0,0,5.65-4.61q1.76-2.83-1.06-9.21c4.7-2.82,7.3-4.83,7.77-6s0-4.13-1.41-8.86C2679.14,187,2679.38,185.08,2680.8,182.72ZM2610.14-36q7.07-1.41,13.43-2.12T2637-40.27v2.12c-2.82,1.41-5.77,2.72-8.83,3.89s-6.48,2.47-10.24,3.88a69.3,69.3,0,0,1-7.78-3.53ZM2473.78,11.31a47.08,47.08,0,0,1-9.53,1.76,37.67,37.67,0,0,0-8.84,1.77,4.89,4.89,0,0,0-.35-2.12,5,5,0,0,1-.35-2.12c3.3-.46,6.48-.94,9.54-1.41a74.2,74.2,0,0,0,9.53-2.12Zm-3.53-14.84Q2455.42,0,2440.93,3.89t-29.32,7.42q-9.89,3.54-20.49,6.36T2370.63,24q2.11-4.25,8.83-8.48a69.72,69.72,0,0,1,15.19-7.07Q2407.37,5,2420.09.71t25.43-7.77q18.39-4.24,35.68-7.42t35.68-6.71q7.77-2.11,15.95-3.53t16-2.83a81.93,81.93,0,0,1,12.49-1.77,77.91,77.91,0,0,0,12.47-1.76l21.4-4.24a34.15,34.15,0,0,1,7.85-.71,8,8,0,0,1,.71,3.53l-11.42,4.24a49.65,49.65,0,0,1-11.4,2.83,235.27,235.27,0,0,0-27.11,4.24q-12.84,2.84-26.38,6.36-14.14,2.82-28.61,5.3T2470.25-3.53Zm40.63,603q1-3.88,2.47-8.12a7.76,7.76,0,0,0,3.53-.71c0,2.83.11,5.53.36,8.13s.35,5.29.35,8.12Q2509.81,603.37,2510.88,599.49Zm7.41-17.31a6.26,6.26,0,0,0-2.82.71,37.18,37.18,0,0,1-2.47-4.24q-1.07-2.11-3.18-5.65c-.48,5.19-1,9.89-1.42,14.13s-1.18,8.71-2.12,13.42c-2.82-2.82-4.24-4-4.24-3.53a48.64,48.64,0,0,0,1.77-9.54c.23-3.06.59-6.47,1.06-10.24a44.42,44.42,0,0,0-.35-6,40.89,40.89,0,0,1-.36-6,2.26,2.26,0,0,1,1.42-2.12,11,11,0,0,0,2.82-2.12,20.74,20.74,0,0,0,3.18,5.65,13,13,0,0,0,5.3,3.53q1.41.72,1.41,4.59Zm1.58-64.29a32.82,32.82,0,0,1,5.88,20.84q-.73,11-7.34,22.26-3.64-1.41-6.83-2.48t-6.71-2.47q13.53-.62,10.6-14.13a28.11,28.11,0,0,0-3.53,4.24,35.1,35.1,0,0,1-4.24,4.94,18.11,18.11,0,0,0-1.06-6.35,5.18,5.18,0,0,1,.35-5,47.58,47.58,0,0,0,3.9-20.52,54.58,54.58,0,0,1,3.2-20.53,76.79,76.79,0,0,0,3.9-21.92,57.47,57.47,0,0,1,4.61-21.23,67.36,67.36,0,0,0,3.91-20.52,48.94,48.94,0,0,1,5.32-20.52,51.41,51.41,0,0,0,5.67-17q1.42-9.19,3.56-18.39,2.83-9.92,5.67-19.11t6.39-19.1q9.21-30.42,19.16-59.44,2.85-7.78,6-15.21t6-15.21l6.4-17q4.25-10.62,8.87-21.58t8.87-22.29q4.24-11.31,8.87-21.93t8.88-21.94q7.08-17,14.18-34.31t14.2-34.32a88.1,88.1,0,0,1,9.23-17.69c.46-1.41,1.88-2.12,4.24-2.12a3.38,3.38,0,0,1,2.47,1.06c.71.71.82,1.3.36,1.77-.48,2.36-.83,4.71-1.07,7.06a26.17,26.17,0,0,1-1.76,7.07q-3.54,11.31-7.42,21.9t-7.42,21.9a23,23,0,0,0,1.41,5.65c3.77-1.87,6.12-2.58,7.07-2.12a3.06,3.06,0,0,1,2.47,1.42c.71.95.82,1.65.36,2.12a91.23,91.23,0,0,1-4.6,8.12,83.42,83.42,0,0,1-5.3,7.42,1.43,1.43,0,0,1-1.06-.35,1.42,1.42,0,0,0-1.05-.36,37.14,37.14,0,0,1,.35-5.3,44.05,44.05,0,0,0,.35-6h-2.12q-5.65,13.42-10.95,26.49t-11,26.5l1.41.7a8.94,8.94,0,0,1,3.54-2.11,9,9,0,0,0,3.53-2.12q5.64,11.31-9.89,23.31a19.11,19.11,0,0,0-3.54-4.95q-6.34,10.6-11.3,20.49a26.21,26.21,0,0,0,6,1.77,13.58,13.58,0,0,1,3.88,1.06q-2.84,8.48-5.3,16.6a130.29,130.29,0,0,1-6,15.9c-.95.95-2.12,2-3.54,3.18s-2.59,2.24-3.53,3.18a43.63,43.63,0,0,0-6.36,4.95c.47.47.71.82.71,1.05s.23.6.71,1.06c1.87-.93,3.64-1.76,5.29-2.47s3.65-1.52,6-2.47q-3.54,8.47-7.06,15.54t-7.07,13.43a5.92,5.92,0,0,1-2.83,2.47,13.57,13.57,0,0,0-3.53,2.47,7.15,7.15,0,0,0,.71-3.18,7.07,7.07,0,0,1,.7-3.18c.94-2.82,1.77-5.65,2.48-8.47s1.52-5.66,2.47-8.48a2.82,2.82,0,0,1-2.12-.71q-2.11,7.06-4.24,13.42c-1.41,4.24-3.07,8.48-4.94,12.72,1.87,1.41,4.23,3.07,7.06,4.95-.95,1.41-1.89,2.71-2.83,3.88s-2.12,2.72-3.53,4.6c.46,1.41.94,3.06,1.41,4.94s1.18,4.72,2.12,8.48a62.44,62.44,0,0,0-13.42-2.83,25.18,25.18,0,0,0,.35,4.24,25.48,25.48,0,0,1,.33,3.58q-2.82,4.21-5.27,8.08a89,89,0,0,0-4.6,8.13c.47.47.82.7,1.07.7s.58.25,1.06.71a6.28,6.28,0,0,1,2.82-1.77,6.18,6.18,0,0,0,2.83-1.76l1.41,2.82q-2.83,9.19-5.65,18t-5.65,18.72c-.48.48-.71.83-.71,1.06s-.24.6-.71,1.06c-3.77,3.78-5.89,6.36-6.36,7.77s-.47,4.24,0,8.48a27.08,27.08,0,0,1-2.47-2.82,28.22,28.22,0,0,0-2.47-2.83c-.95-.94-3.3-.94-7.07,0q9.18,4.24,8.83,11.66a96.48,96.48,0,0,0,.36,14.48,47.11,47.11,0,0,0-4.95,2.83,45.48,45.48,0,0,1-4.94,2.82,2.94,2.94,0,0,1,.7,2.12,25.18,25.18,0,0,0,4.24-.35,26.36,26.36,0,0,1,4.24-.35,133.32,133.32,0,0,0-6,13.77,95,95,0,0,1-6,13.07,9.58,9.58,0,0,1-4.94,2.12,67,67,0,0,0-7.78,2.12l3.18,2.12a21.91,21.91,0,0,0,2.47,1.42,46.57,46.57,0,0,1-.35,5.65,51,51,0,0,0-.35,6.36,10.72,10.72,0,0,0-3.68,4.24q-1.47,2.82,2.21,6.35c1,2.37,1.21,4.24.73,5.66q-4.41,5.65-1.48,8.12c1.94,1.66,4.09,3.42,6.46,5.3Q2530.9,510.84,2519.87,517.89ZM2576.94,330h5.65a17.27,17.27,0,0,0-1.77,5.65,17.56,17.56,0,0,1-1.76,5.66,7.88,7.88,0,0,1-3.54-.71,21.88,21.88,0,0,0,.71-5.3,31.46,31.46,0,0,1,.68-5.87C2576.92,329.57,2576.94,329.76,2576.94,330ZM2549.38,508q-2.12,5-4.24,10.59a1.47,1.47,0,0,0-1.06.36,1.43,1.43,0,0,1-1.06.35c-.47-.94-1.06-2-1.76-3.18a3.17,3.17,0,0,1-.36-3.18q.7-4.23,1.77-8.48c.71-2.82,1.52-5.65,2.47-8.47a4.59,4.59,0,0,1,2.12-2.12,11,11,0,0,0,2.83-2.12c1.88,2.82,2.83,4.71,2.83,5.65A70.84,70.84,0,0,1,2549.38,508Zm10.25-38.86a97.92,97.92,0,0,1-1.77,13.42c0,.95-.71,2.12-2.12,3.53a27.15,27.15,0,0,1-4.24,3.54,8.93,8.93,0,0,1-2.12-.36c-1-.23-1.41-.58-1.41-1.06a21.7,21.7,0,0,1,.35-3.53,22.84,22.84,0,0,0,.36-3.53,25.7,25.7,0,0,1,5.29-9.54q3.89-4.59-.35-10.24c0-.47.71-1.42,2.12-2.83a28.72,28.72,0,0,0,3.53-4.24l1.42,1.41Q2560,462.79,2559.63,469.14Zm30-58.64q-1.41-7.77,1.77-9.19t10.25,0Q2594.59,406.26,2589.65,410.5ZM2649,201.36a84.21,84.21,0,0,0-1.41,15.19q0,7.42-5.65,13.78a41.11,41.11,0,0,0-7.77,13.78q-2.84,8.13-1.42,11.66c-.95,2.82-1.65,5.19-2.12,7.06s-1,3.78-1.41,5.65a2.08,2.08,0,0,0-.71,1.42,2,2,0,0,1-.7,1.41q-6.36,7.06-7.77,14.84t-2.83,15.54a22.73,22.73,0,0,1-3.89,10.25,47.13,47.13,0,0,0-5.3,10.24q-2.11,4.24-3.88,8.48t-3.18,8.48l-12.72,38.15q-5.65,16.26-10.6,32.5t-10.6,32.5q-.7,3.54-4.94,10.6-2.11-4.93-3.53-8.48c-1-2.35-1.89-4.7-2.83-7.07q9.89-4.93,11-13.42a74.41,74.41,0,0,1,3.89-16.25,61.56,61.56,0,0,0,3.53-15.19c.46-5,1.17-10,2.12-15.19.94-2.83,1.88-5.88,2.83-9.19a23.84,23.84,0,0,1,4.24-8.47A26,26,0,0,0,2590,346.2a100.29,100.29,0,0,1,3.18-14.13q4.93-16.95,9.53-33.56a118.69,118.69,0,0,1,14.49-32.15,27.86,27.86,0,0,0,3.18-8.12c.7-3.06,1.52-6,2.47-8.83a38.75,38.75,0,0,1,7.07-17.66,115.84,115.84,0,0,0,9.89-16.26,39.42,39.42,0,0,0,3.53-7.77q1.41-4.23,2.83-7.77C2649,200.9,2649.94,201.36,2649,201.36ZM2672.32,153c-1.89,4.94-4,9.78-6.36,14.48a158,158,0,0,0-6.36,14.48,42.28,42.28,0,0,0-2.83,15.19q-12-.69-5.65-9.89,3.52-7,6.36-14.13t6.36-14.83a93.11,93.11,0,0,1,11.3-20.49A42.62,42.62,0,0,1,2672.32,153Zm-.71-173.46q-11.31,1.43-23,2.48a78.53,78.53,0,0,0-22.26,5.3,59.27,59.27,0,0,1-25.08,4.24,59.6,59.6,0,0,0-25.08,4.23A76.17,76.17,0,0,1,2555,0q-11.31.72-23.31,2.12c-1.89,4.24-4.59,5.9-8.13,5a28.67,28.67,0,0,0-11-.71c-2.82.48-5.77.83-8.83,1.06a18.35,18.35,0,0,0-8.12,2.48c-3.77,1.88-6.59,2.94-8.48,3.17s-4.71-.58-8.48-2.47q1.42-2.12,2.47-3.88a17.56,17.56,0,0,1,2.47-3.18c2.37-.47,4.6-.82,6.72-1.06s4.36-.59,6.71-1.06l38.15-6.36q3.52-.7,6.36-1.41l5.65-1.42q13.42-1.41,26.5-3.18t25.79-3.88a78.79,78.79,0,0,1,12.36-1.77,76.51,76.51,0,0,0,12.36-1.77q7.77-2.11,15.9-4.23t15.9-3.54a5.4,5.4,0,0,1,4.24.36l4.94,2.47a11.52,11.52,0,0,0,1.42-1.77,5.24,5.24,0,0,1,2.12-1.76q1.39-.7,6.35-.71l1.42,1.41a2.1,2.1,0,0,1,.7,1.42Q2673.72-21.18,2671.61-20.49Z" transform="translate(1365.91 228.83)"/><path class="cls-1" d="M2608,243.76l6.36-17a5.69,5.69,0,0,0-2.12-.71,5.4,5.4,0,0,1-2.12-.7c-.95,2.82-2,5.65-3.18,8.47a81.55,81.55,0,0,0-3.17,9.19,5,5,0,0,1,2.11.35A4.67,4.67,0,0,0,2608,243.76Z" transform="translate(1365.91 228.83)"/><path class="cls-1" d="M2915.36,362.45l2.12,2.12,8.48-8.48q4.23-4.23,7.77-8.47l-2.12-2.12-8.48,8.47Q2918.89,358.22,2915.36,362.45Z" transform="translate(1365.91 228.83)"/><path class="cls-1" d="M2935.85,340.55a1.24,1.24,0,0,0,1.41,1.41l11.31-9.89a22,22,0,0,0,7.06-13.42q-5,5.66-9.89,11T2935.85,340.55Z" transform="translate(1365.91 228.83)"/><path class="cls-1" d="M2965.17,340.2c1.17-1.65,2.47-3.65,3.88-6a96.79,96.79,0,0,0,21.55-19.07q9.54-11.3,20.14-22.61a3,3,0,0,0-3.89,0,20.79,20.79,0,0,0-3.18,3.18,16,16,0,0,1-2.82,2.82q-1.42,1.07-4.24-1.76,7.77-7.77,14.48-15.9t13.78-15.9l-2.12-2.12-11.3,11.31-11.31,11.3q-7.07,6.36-13.42,12.37T2974,310.17a84.31,84.31,0,0,0-5.3,7.42,44.26,44.26,0,0,1-6,7.42c-3.31,3.77-6.36,7.41-9.19,10.95a137,137,0,0,1-9.89,11q-3.54,3.54-7.77,7.06a60.76,60.76,0,0,0-7.77,7.78c-2.37,3.3-4.6,6.71-6.72,10.24a75.45,75.45,0,0,1-7.41,10.25,16.65,16.65,0,0,1-5.3,4.59,54.14,54.14,0,0,0-6,3.87l-2.12-2.11c2.35-3.29,4.95-6.59,7.77-9.89a86.22,86.22,0,0,0,7.77-10.6,6.19,6.19,0,0,0-1.41-1.06,5.06,5.06,0,0,1-1.41-1.06c-1.89,2.37-3.53,4.6-4.95,6.72s-3.07,4.36-4.94,6.71q-11.31,12.72-22.61,25.38t-22.61,26q-12.72,14.79-25.44,29.92T2808,492.09q-14.14,16.91-27.56,34.16t-27.55,34.84a6.11,6.11,0,0,1-3.18,1.76,6.25,6.25,0,0,0-3.18,1.76,22.66,22.66,0,0,0-.35-3.51,5.57,5.57,0,0,1,.35-3.54q1.41-4.9,2.47-9.84c.71-3.29,1.29-6.57,1.77-9.86q2.81-31,18.37-62.66a45.6,45.6,0,0,1,5.65-10.57c2.35-3.29,2.83-7,1.41-11.27a1.39,1.39,0,0,1,.71-2.11,4.64,4.64,0,0,0,2.12-2.1q2.11-4.93,4.59-9.51t4.59-8.8l-3.53-3.52L2796,404.79a35.94,35.94,0,0,1,2.12-4.94q3.52-7.73,7.41-15.85t7.42-16.6a12.57,12.57,0,0,0,1.42-5.65,8.66,8.66,0,0,1,1.41-4.95,71.37,71.37,0,0,0,8.83-15.9,47.89,47.89,0,0,1,8.83-14.48,43.67,43.67,0,0,0,9.89-18,32.47,32.47,0,0,1,12-17.31c1.42-.46,2.12-1.64,2.12-3.53-1-3.76-.35-6.82,1.77-9.18a21.26,21.26,0,0,0,4.59-8.48,30,30,0,0,1,4.59-8.48c2.12-2.83,4.12-5.41,6-7.77q5.64-9.18,12-18t12-18q5.66-9.88,11.31-19.07a102,102,0,0,0,9.18-19.08q2.82-7.77,5.3-15.54a37,37,0,0,0,1.06-17,46.6,46.6,0,0,0-8.48-18.37,24,24,0,0,0-16.25-9.89,10.34,10.34,0,0,0-5.3,0,9.92,9.92,0,0,1-5.3,0c-3.3,0-5.42-1.17-6.36-3.53q-.7-5.65-3.53-5.65a33.49,33.49,0,0,0-6.36.7c-3.77,0-6.36-.46-7.77-1.41a28.48,28.48,0,0,0-8.12-3.89c-2.6-.7-5.3.36-8.13,3.18a39.12,39.12,0,0,0-4.94,6,36.17,36.17,0,0,0-3.54,6.71q-10.59,22.62-21.55,44.16t-21.54,44.16q-10.6,21.9-21.2,43.45T2756.39,296q-5.67,11.31-10.24,21.9t-9.54,21.2q-4.24,11.31-8.48,22.25t-7.77,22.26q-5.67,17.61-11,34.87t-11,34.84a149.54,149.54,0,0,0-4.23,19.37q-1.41,9.5-2.83,19.36t-2.83,19a84.81,84.81,0,0,0-.7,19q0,21.82,12,35.56a152.69,152.69,0,0,0,28.26,25,1.55,1.55,0,0,0,1.76.35,8,8,0,0,1,2.48-.35c3.76.48,7.17.82,10.24,1.06s6.47.35,10.25.35c3.76.94,6.36.94,7.77,0l9.89-5.63a63.37,63.37,0,0,0,9.19-6.33,96.39,96.39,0,0,0,22.6-23.24q9.18-13.38,19.08-25.35,9.18-10.56,17.31-21.47t16.6-22.18q5.65-7.74,11.31-14.78t11.3-14.79q5.65-7.74,11-14.43t10.95-14.44a117.68,117.68,0,0,1,11-13.38,33.12,33.12,0,0,0,8.12-16.2,18.92,18.92,0,0,1,3.53-4.92q3.54-3.51,7.07-7.4t7.06-8.12c1.42-1.88,2.83-3.77,4.24-5.65s2.83-3.77,4.24-5.66,2.83-3.64,4.24-5.29,2.83-3.18,4.24-4.6L2962,345.5A39.34,39.34,0,0,1,2965.17,340.2Zm-208.43,9.89q3.18-6.7,6.72-14.49a7.46,7.46,0,0,0,1.41,2.12,2.1,2.1,0,0,1,.7,1.42q-2.12,5.66-4.24,12t-4.23,12c-.95,2.82-2.12,4-3.54,3.53a6.76,6.76,0,0,1-3.53-2.82Q2753.56,356.81,2756.74,350.09ZM2737.67,407q-2.49,6.36-5.3,13.43-2.84-4.25,0-13.07t7.77-13.78a4.08,4.08,0,0,0,2.83.71Q2740.14,400.61,2737.67,407ZM2891,405.2a139.28,139.28,0,0,0-7.42,13.07q-7.77-3.52-2.11-9.19,2.81-3.52,5.65-6.71t6.36-6.71c2.35-2.35,4.24-2.94,5.65-1.77s3.29,2.72,5.65,4.6Q2894.86,399.19,2891,405.2Z" transform="translate(1365.91 228.83)"/><path class="cls-1" d="M2970.47,304.16q-7.08,6.73-14.84,14.49a27.12,27.12,0,0,0,6.36-2.83,40.13,40.13,0,0,0,6.36-3.18c1.87-1.17,3.76-2.23,5.65-3.18,0-3.29.23-5.41.71-6.36a73.56,73.56,0,0,1,5.65-6.35,77.47,77.47,0,0,0,5.65-6.36,2.06,2.06,0,0,0-1.41-.71Q2977.52,297.47,2970.47,304.16Z" transform="translate(1365.91 228.83)"/><path class="cls-1" d="M3140.74,263.54a66.36,66.36,0,0,0,1.77-12.37,24.44,24.44,0,0,0-2.48-12.36,48.16,48.16,0,0,0-9.18-11.66q-5.67-5.29-11.31-11a24.44,24.44,0,0,0-6.35-4.59c-2.37-1.17-4.72-2.47-7.07-3.89a55.86,55.86,0,0,1-8.12-4.94,30.27,30.27,0,0,0-8.13-4.24,3.73,3.73,0,0,0-3.89-.71,18.89,18.89,0,0,1-5.29.71c-1,.47-2,1.06-3.18,1.76a7.41,7.41,0,0,1-3.89,1.06q-12.72,0-17,13.43a33.63,33.63,0,0,1-8.83,14.13q-6,5.66-13.07,11.3a32.86,32.86,0,0,1-6.36,4.95c-2.36,1.41-2.82,4-1.41,7.77l-8.48,2.12a7.73,7.73,0,0,0,.71,3.53,60.84,60.84,0,0,1,11.3-1.41,10,10,0,0,1,4.24-.71,10.76,10.76,0,0,1-1.41,4.24,10.93,10.93,0,0,1-1.41,4.24L3027.7,272q-2.13,3.54-3.54,6.36a13.64,13.64,0,0,0-.35,5.29,6.8,6.8,0,0,1-.35,3.89q-7.08,16.26-13.78,32.5t-12.36,32.5a240.85,240.85,0,0,0-8.48,24,247.57,247.57,0,0,1-8.48,24,310.41,310.41,0,0,0-22.61,89.73q-1.42,16.26-2.12,31.8a67,67,0,0,0,6.36,31.08q4.25,9.19,8.48,18a37.57,37.57,0,0,0,12,14.48q4.23,1.42,8.12,2.83c2.59,1,5.53,1.89,8.84,2.83a33.53,33.53,0,0,1,2.11-3.54,7.6,7.6,0,0,0,1.42-4.23,20.82,20.82,0,0,1,6.36-18.37,18.48,18.48,0,0,0,5.29-9.54q1.07-5.3,1.77-11t1.41-11a50.35,50.35,0,0,1,2.83-11,99.2,99.2,0,0,0,5.65-23.31,56.87,56.87,0,0,1,7.07-21.9,33.65,33.65,0,0,0,3.18-15.55q-.36-7.76,8.12-12.71l.71-.71c-1.41-3.77-1.18-6.82.71-9.19a24,24,0,0,0,4.23-8.47,37.66,37.66,0,0,0,.71-8.48l.71.7q12-24,24-47.69t24-47.69a58.33,58.33,0,0,0,6.71-3.18c2.12-1.17,3.41-2.47,3.89-3.88a31.17,31.17,0,0,1,6.71-15.55,87.33,87.33,0,0,0,9.54-14.13q4.24-6.36,8.48-13.07A40.56,40.56,0,0,0,3140.74,263.54Z" transform="translate(1365.91 228.83)"/><path class="cls-1" d="M3353.4,250.82c2.35-.46,3.53-1.17,3.53-2.12q-.7-5.64,2.12-9.18l5.65-7.07a142.58,142.58,0,0,0,14.84-22.61q6.36-12,19.78-18.37a3.23,3.23,0,0,0,1.77-1.76,4.33,4.33,0,0,1,1.06-1.77q3.53-5.64,6.71-10.6a55,55,0,0,1,7.42-9.18,218.73,218.73,0,0,1,17.66-18.37q9.18-8.47,18.37-17.67a4.2,4.2,0,0,1-2.82-2.82,625.13,625.13,0,0,0-103.16,122.23A35.4,35.4,0,0,0,3353.4,250.82Z" transform="translate(1365.91 228.83)"/><path class="cls-1" d="M3527.2,250.11a19,19,0,0,0,7.78-8.47q2.11-4.94,4.23-10.6a26,26,0,0,0,2.12-6,15.64,15.64,0,0,1,2.83-6l19.78-28.26q9.89-14.13,19.79-28.26c.94-1.88,2-3.77,3.18-5.66a19.9,19.9,0,0,0,2.47-5.65,63.67,63.67,0,0,0,1.76-11.66,63.11,63.11,0,0,1,1.77-11.65,16.33,16.33,0,0,0,.35-8.84,68.46,68.46,0,0,0-2.47-7.41,57.57,57.57,0,0,1-3.53-8.84c-1-3-2.59-5-5-6q-9.9-5.65-9.89-12c-2.36-1.88-4.36-3.54-6-5a27.16,27.16,0,0,0-5.3-3.53q-4.95-2.82-9.19-5.3a84.46,84.46,0,0,0-9.18-4.59q-3.54-1.41-8.48.35c-3.3,1.18-5.9-.35-7.77-4.59,0-.47-.6-.71-1.77-.71a7,7,0,0,0-3.18.71c-2.36,1.89-4.48,3.65-6.36,5.3a47.17,47.17,0,0,0-5.65,6,20.42,20.42,0,0,0-3.18,6.36,10.7,10.7,0,0,1-3.88,5.65q-9.92,9.2-20.14,17.31t-20.84,16.61a5.36,5.36,0,0,0-1.06,1.41,6,6,0,0,1-1.06,1.41,100.83,100.83,0,0,0,13.07-7.77q6-4.23,12.36-9.18a14,14,0,0,1,6.36-1.42,4,4,0,0,0-.35,2.83,3,3,0,0,1-1.06,2.83q-3.54,4.23-6.71,8.47t-6.72,8.48q4.93,7.08-2.82,13.43-7.78,7.77-15.9,16.25T3441,172.4q-2.13,2.11-7.77,3.53c-.95-.94-1.42-1.65-1.42-2.12q9.88-9.88,19.08-19.78T3470,134.24l-1.42-1.41c-1.89,1.41-3.65,2.83-5.3,4.24a30.73,30.73,0,0,0-4.59,5q-12,12-24,24.37t-24,25.08a105.85,105.85,0,0,0-7.77,10.25c-2.37,3.53-5,7.18-7.78,10.95q-3.54,5.66-7.06,10.24T3381,233.16a29.2,29.2,0,0,1-8.83,8.12c-3.53,2.12-5.3,5.78-5.3,10.95a7.08,7.08,0,0,1-2.82,5.3,17.71,17.71,0,0,0-4.24,5.3q-5,5.67-9.19,11.31t-8.48,11.3q-5.65,7.79-10.59,15.9t-10.6,15.89q-.72.72-9.89,2.12a82.42,82.42,0,0,0,3.18-8.47,8.61,8.61,0,0,1,3.18-4.95c3.76-1.41,5.65-3.06,5.65-4.95s-.95-4-2.83-6.35a69.44,69.44,0,0,1,7.07-7.42q3.52-3.18,7.06-6a30.74,30.74,0,0,1,2.83-5.65,12.76,12.76,0,0,1,3.53-3.53q9.18-7.06,3.53-19.08a68.49,68.49,0,0,1-4.94,5.65,18.62,18.62,0,0,0-3.53,5q-4.24,5.65-8.13,12t-7.42,12q-7.07,11.31-14.13,21.9t-13.42,21.2q-9.19,14.83-17.67,29.67L3258,390l-50.87,93.26a9.43,9.43,0,0,1-3.18,2.12,21.9,21.9,0,0,0-3.89,2.12c1.42-4.24,2.59-8,3.54-11.31a51.6,51.6,0,0,1,3.53-9.18,28.25,28.25,0,0,1,4.24-7.07c1.87-2.35,2.35-4.24,1.41-5.65q-3.54-8.48.35-15.9a53.2,53.2,0,0,0,5.3-15.19,62.58,62.58,0,0,1,7.07-15.89q4.93-8.11,9.18-15.9a20.13,20.13,0,0,1,4.59-6.71c2.12-2.12,2.94-4.12,2.48-6q-1.42-6.36,1.41-10.24t5.65-7.42a45.5,45.5,0,0,0,7.77-12.36q2.82-6.72-1.41-14.49,7.77-1.41,10.95-6.71a58.31,58.31,0,0,0,5.3-11.66,169.36,169.36,0,0,1,8.13-19.07,39.47,39.47,0,0,1,14.48-15.55,34.51,34.51,0,0,0,6.36-6.71,56.86,56.86,0,0,0,4.94-8.13q4.24-7.75,8.13-16.6t8.12-16.6a12,12,0,0,1,4.6-5.65,8.62,8.62,0,0,0,3.88-5.66,58.38,58.38,0,0,1,9.54-17.31q6-7.41,12.37-15.19a36.43,36.43,0,0,0,9.89-20.49,162.77,162.77,0,0,1,4.24-21.9,12,12,0,0,0-.71-3.53,31.47,31.47,0,0,0-1.41-3.53,40.65,40.65,0,0,0-9.54-14.13q-6-5.65-11.66-11.31a71.05,71.05,0,0,0-9.54-8.12q-4.61-3.18-12.36-.36V99.62a12.82,12.82,0,0,0-5.3-.35c-2.12.24-4,.48-5.65.71a7.54,7.54,0,0,1-4.95-1.06c-1.65-.94-2.95-2.83-3.88-5.65q-17,4.23-22.61,19.78-5.67,12-12,23.67a207.52,207.52,0,0,0-11.31,24.37,126.94,126.94,0,0,1-12.36,23,80.06,80.06,0,0,0-10.95,23.67,84.13,84.13,0,0,1-5.3,13.43l-6.71,13.42q-7.08,16.26-14.14,31.79t-14.13,31.8q-6.36,14.83-12.36,30t-11.66,30A600.21,600.21,0,0,0,3140,455a269.34,269.34,0,0,0-4.24,72.77,136.25,136.25,0,0,0,5.65,27.55,91.9,91.9,0,0,0,12.72,25.44q3.53,5.65,8.12,7.06a34.44,34.44,0,0,1,8.83,4.24q17,11.29,26.85-4.94,5.65-7.77,11.66-14.49a63.77,63.77,0,0,0,10.25-15.89,89.72,89.72,0,0,1,8.83-15.19,118.4,118.4,0,0,0,9.53-15.9q9.18-16.95,17-34.27t17-34.26q10.59-20.49,21.19-41.69T3316,373.76q14.13-23.33,28.26-46.28t29-45.57a170.27,170.27,0,0,1,12.37-18.72q6.7-8.83,13.07-18,2.8-3.53,5.3-6.36a44.7,44.7,0,0,0,4.59-6.36c2.35-3.76,4.47-7.42,6.36-10.95a88.8,88.8,0,0,1,6.36-10.24q7.76-9.18,14.83-17.67t14.84-17a18.49,18.49,0,0,1,3.89-2.83,18.48,18.48,0,0,0,3.88-2.83l2.12,2.12q-2.11,6.36-3.89,12.72a66.92,66.92,0,0,1-4.59,12q-20.49,48.06-21.19,98.21,0,31.09,10.59,57.58t37.45,44.87q12,8.47,24,0-2.83-6.36-5.3-12.37t-5.3-11.66a35.7,35.7,0,0,1,.36-5.3,33.33,33.33,0,0,0,.35-4.59,57.67,57.67,0,0,0-.35-14.13c-.71-4.7-.12-8.48,1.76-11.3q5.65-8.49,4.24-17.31a25.34,25.34,0,0,1,2.83-16.61A52,52,0,0,0,3505,295a26.62,26.62,0,0,1,4.59-10.25q2.82-4.94,5.65-9.53a58.74,58.74,0,0,0,4.95-10.25,27.86,27.86,0,0,0,3.18-8.12A11.18,11.18,0,0,1,3527.2,250.11ZM3187,429.93c-.71,1.65-1.53,3.42-2.47,5.29a7.4,7.4,0,0,1-1.77-1.05,8.29,8.29,0,0,0-1.76-1.06,46.67,46.67,0,0,1,4.94-9.9c.47.48.82.71,1.06.71s.59.24,1.06.71a2,2,0,0,0,1.41.7A29.23,29.23,0,0,0,3187,429.93Zm124.35-96.09a12.18,12.18,0,0,1-2.47,3.88,4.27,4.27,0,0,1-3.89,1.06,33.44,33.44,0,0,0-4.59-.35,6.43,6.43,0,0,0,1.77-3.53,6.2,6.2,0,0,1,1.76-3.53,8.88,8.88,0,0,1,3.53-2.12,8.8,8.8,0,0,0,3.54-2.12,5.48,5.48,0,0,0,1.41,1.06,5.84,5.84,0,0,1,1.41,1.06A27.91,27.91,0,0,0,3311.36,333.84Z" transform="translate(1365.91 228.83)"/><path class="cls-1" d="M3857.15,436.64l12-12q-6.36-3.53-10.95-1.77a17.16,17.16,0,0,0-7.42,5.3,252.38,252.38,0,0,1-19.07,19.78q-9.91,9.19-20.49,17.67a24.52,24.52,0,0,0-3.89,3.18,24.74,24.74,0,0,1-3.88,3.17,3.68,3.68,0,0,1-3.18,0,9,9,0,0,0-3.18-.7,10.49,10.49,0,0,0,1.76-2.12,3.83,3.83,0,0,1,1.77-1.42,5.67,5.67,0,0,1,1.41-1.05,6.08,6.08,0,0,0,1.42-1.06l8.83-8.84q4.58-4.57,8.83-9.53a16.49,16.49,0,0,0,2.47-3.18c.71-1.17,1.52-2.48,2.47-3.89q16.24-17.66,33.56-35.33t34.27-36a4,4,0,0,0-1.41-1.77,5.09,5.09,0,0,1-1.42-1.06l-4.23,5.66a24.91,24.91,0,0,1-4.95,4.94q-9.9,9.9-20.14,19.08T3840.9,414q-12,12-24,23.31T3792.15,460l-29.67,25.44q-14.85,12.72-30.38,24.73-6.36,4.23-15.19,11t-18.73,13.42q-9.9,6.72-19.07,12.72t-15.55,10.24q-12,7.78-29.67,12.37t-31.8,2.47a17.61,17.61,0,0,1-12-7.77,17.23,17.23,0,0,1-2.47-7.42c-.24-2.58-.6-5.06-1.06-7.42l-2.12-4.24c-.95-3.29-2.12-5.17-3.53-5.65q-4.24-3.52-1.41-8.48c1.87-2.82,2.12-5.41.7-7.77q-5-8.47,1.42-14.84,1.39-.69,2.82-3.53c.46-2.35.94-4.7,1.41-7.06A39.58,39.58,0,0,1,3588,491a12.35,12.35,0,0,0-3.88-2.47c-1.66-.71-1.3-2.23,1.06-4.6a6.87,6.87,0,0,0,1.76-2.47,7.05,7.05,0,0,1,1.77-2.47,14.56,14.56,0,0,0,1.06-2.83,3.16,3.16,0,0,1,1.77-2.12q7.76-4.23,6.36-11.3l4.23-2.12.71.71q9.18,2.11,24.73,1.41t24.73-2.83h.7a22,22,0,0,0,6.36-1.41q11.29-3.53,22.61-6.71a60.73,60.73,0,0,0,21.2-10.95,2.86,2.86,0,0,1,2.12-.71q4.93-3.53,9.54-6.36a75.11,75.11,0,0,0,8.83-6.36q3.52-2.81,6.71-5.65t6.71-5.65c2.83-2.35,5.88-4.7,9.19-7.07a67.15,67.15,0,0,0,8.47-7.06,102.83,102.83,0,0,0,8.84-11.66,27.08,27.08,0,0,1,10.95-9.54c1.41-.46,2.58-1.87,3.53-4.24a33.39,33.39,0,0,1,4.95-9.18,66.88,66.88,0,0,1,7.41-9.89,68.16,68.16,0,0,0,7.42-9.89q4.24-5.65,8.48-12t8.48-12.71a132.78,132.78,0,0,0,13.42-19.79,126.68,126.68,0,0,0,7.78-13.42,7.14,7.14,0,0,0,.7-3.18,4.39,4.39,0,0,1,1.41-3.18c2.36-1.88,3.65-3.88,3.89-6a25.51,25.51,0,0,1,1.77-6.72,60.68,60.68,0,0,0,2.12-8.12c.46-2.58.93-5.3,1.41-8.13a29.65,29.65,0,0,1,4.24-8.12c1.88-2.58.71-5.3-3.53-8.13a21.3,21.3,0,0,1,1.41-2.47,3.54,3.54,0,0,0,.71-1.77,22,22,0,0,1,0-15.54,19.93,19.93,0,0,0-.71-15.54,68.31,68.31,0,0,1-5.3-14.13,88.05,88.05,0,0,0-5.3-14.84,30.39,30.39,0,0,1-2.47-9.89,37.82,37.82,0,0,0-1.77-9.19,2,2,0,0,1-.71-1.41q-3.54-7.77-7.06-14.13t-11.3-11.3a36.08,36.08,0,0,1-5.66-3.54,24.6,24.6,0,0,1-4.94-4.94,12.54,12.54,0,0,0-4.95-5c-1.89-.94-4-1.88-6.36-2.82a3,3,0,0,1-1.41-.36,3.22,3.22,0,0,0-1.41-.35l-19.08-8.48c-.95-.46-2.36-.23-4.24.71a37.81,37.81,0,0,1-4.24,2.47,13.57,13.57,0,0,0-3.53,2.47q-9.9,7.79-18.37,15.9a111.23,111.23,0,0,0-15.54,18.72A77.7,77.7,0,0,1,3712,159.33a159.5,159.5,0,0,0-15.19,15.89q-7.07,7.78-14.13,14.84a101.28,101.28,0,0,0-12.72,15.54,21.53,21.53,0,0,1-6,6.36c-2.6,1.89-3.18,4.95-1.77,9.19h-2.83q-5.66,1.42-11.3,7.06c-3.78,3.78-5.42,7.07-4.95,9.89q1.41,7.78-4.24,9.19-2.11,3.54-3.53,5.65c-1,1.41-1.89,2.83-2.82,4.24a1.4,1.4,0,0,1-1.06-.35,1.46,1.46,0,0,0-1.06-.36,54.79,54.79,0,0,0,2.12-5.65q-12.72,16.26-23.32,29.68c.94,1.41,1.88,2.71,2.83,3.88a34.57,34.57,0,0,0,2.82,3.18,7,7,0,0,1-3.18.71,7.14,7.14,0,0,0-3.18.7c.94,4.72.94,7.66,0,8.84s-4,2.94-9.18,5.29a1.44,1.44,0,0,0-1.06.36,1.44,1.44,0,0,1-1.06.35,41,41,0,0,1-3.18,6.36q-1.77,2.83-3.18,5.65-2.84,3.54-5.3,6.71a76.09,76.09,0,0,1-6,6.72q3.53,5.65-6.36,5.65a36.27,36.27,0,0,1,4.24,4.94l-6.36,4.24c.94,1.42,1.06,2.37.35,2.83a16.9,16.9,0,0,0-2.47,2.12,21,21,0,0,0-4.6,4.59q-2.48,3.18-1.76,3.89,3.53,5.65,1.06,7.06a20.34,20.34,0,0,1-5.3,2.12l-1.41,5.65q-6.36,2.84-4.24,10.6a6.12,6.12,0,0,1-2.12,4.24q-10.61,3.54-4.24,12c-2.36.95-3.78,2.12-4.24,3.53q-3.54,9.91-7.77,20.14a49.65,49.65,0,0,0-3.53,22.26,2.91,2.91,0,0,1-.71,2.12c-.48,4.71-1.06,9.18-1.77,13.42s-1.3,8.72-1.76,13.42a59.38,59.38,0,0,0,.35,19.43q1.76,9.54,4.59,19.43,1.41,4.24,2.48,7.77a30.61,30.61,0,0,0,3.17,7.07c1.42,2.36,2.94,4.71,4.6,7.06s3.18,4.72,4.59,7.07c.94,2.36,1.76,4.59,2.47,6.71a10.76,10.76,0,0,0,3.89,5.3q7.05,7.07,10.6,19.78l2.12,4.24v.71a556.48,556.48,0,0,0,1.41,2.83c1.87,2.36,3.53,4.59,4.94,6.71a44.85,44.85,0,0,0,5.66,6.71,23.77,23.77,0,0,1,.35-4.59,16.66,16.66,0,0,0,.35-3.18,1.39,1.39,0,0,0,1.06-.36,1.46,1.46,0,0,1,1.06-.35c.47,3.78,1.77,6.24,3.89,7.42a15.11,15.11,0,0,0,7.42,1.77,50.54,50.54,0,0,0,8.12.7q3.89,0,6-4.94,3.52-5.65,9.18-1.42a26.2,26.2,0,0,0,17,6.36,121.1,121.1,0,0,0,18.37-1.41,108.86,108.86,0,0,0,17.66-4.24,59.36,59.36,0,0,0,16.25-8.48q3.52-2.11,10.6-6.71c4.7-3.06,9.54-6.24,14.48-9.54s9.77-6.36,14.49-9.18,8.48-5,11.3-6.36a22.62,22.62,0,0,0,2.47-1.41,24.56,24.56,0,0,1,2.48-1.42q9.16-7.77,18.37-15.89t17.66-15.9a137.18,137.18,0,0,1,18-15.19,47.58,47.58,0,0,0,15.19-18c1.41-1.41,2.12-1.87,2.12-1.41l6.35-6.36a26.3,26.3,0,0,0,2.48-2.83,26.78,26.78,0,0,1,2.47-2.82,6.19,6.19,0,0,1,3.18-1.77,6.18,6.18,0,0,0,3.18-1.76q7.05-7.07,13.78-14.14T3857.15,436.64Zm-267.77-66.42q-2.13,2.13-3.54,0c-1.88,0-2.12-.7-.7-2.12,1.41-1.87,2.7-3.76,3.88-5.65a32.45,32.45,0,0,1,4.6-5.65c.46-.46,1.87-.71,4.24-.71q2.11,6.36-2.12,8.48A15,15,0,0,0,3589.38,370.22Zm7.77,21.2a18.25,18.25,0,0,1,4.24-13.78q4.93-6,11.3-6.71-4.23,5.67-7.77,10.25T3597.15,391.42Zm123.29,5.3a7.57,7.57,0,0,1-1.77,4.59,74.61,74.61,0,0,1-8.83,6.36q-4.61,2.83-9.54,5.65l-2.12-2.12,8.48-6.36a28.61,28.61,0,0,1,3.53-4.24,28.16,28.16,0,0,0,3.54-4.23c1.41-3.77,4-5.66,7.77-5.66A43.42,43.42,0,0,0,3720.44,396.72Zm10.95-10.25c-.95,1.89-1.89,2.83-2.83,2.83a24.41,24.41,0,0,1-7.06.71,7,7,0,0,0,1.76-2.48,7.05,7.05,0,0,1,1.77-2.47,3.94,3.94,0,0,1,4.95-.71,2.12,2.12,0,0,1,1.41.71A.89.89,0,0,1,3731.39,386.47ZM3672,340.9c2.83-4.47,5.88-8.83,9.19-13.07a4.92,4.92,0,0,0,.35-3.18,19.43,19.43,0,0,1-.35-3.88,26,26,0,0,0,14.13-9.89A146.1,146.1,0,0,1,3706,297.45l8.84-8.83a76.93,76.93,0,0,0,8.12-9.54,75.12,75.12,0,0,0,6-9.89,73.14,73.14,0,0,1,6-9.89,20,20,0,0,1,3.53-4.24q2.82-1.41,5.66-3.18a27.88,27.88,0,0,0,4.94-3.88,99.23,99.23,0,0,0,9.19-10.6,36.34,36.34,0,0,1,9.89-9.19,39.48,39.48,0,0,0,8.48-6.36,51,51,0,0,1,7.77-6.36q2.8-2.12,5.3-4.23c1.64-1.42,3.41-3.06,5.3-4.95.94-.46,2.82-2.12,5.65-4.95l5.65-5.65a8.82,8.82,0,0,1,6.36-2.82c.94,0,1.77.7,2.47,2.12a8.27,8.27,0,0,1,1.06,3.53c0,4.71.11,9.43.36,14.13a58,58,0,0,1-1.06,14.13,143.08,143.08,0,0,1-10.6,38.15,273.13,273.13,0,0,1-18.37,34.62,6.27,6.27,0,0,0-1.77,3.53,12.7,12.7,0,0,1-1.06,3.54,4.79,4.79,0,0,1-1.41,3.53q-5.67,7.06-11.31,14.13l-11.3,14.13q-4.24,5.67-8.83,11.3T3741.28,361l-2.83,2.83a107.7,107.7,0,0,1-14.48,18,142.14,142.14,0,0,1-18,15.19,40.22,40.22,0,0,1-7.06,4.6q-3.54,1.77-7.07,3.88l-21.19,14.84a4.06,4.06,0,0,1-2.83,1.41,29.68,29.68,0,0,1-5.3,2.12,16.26,16.26,0,0,0-4.59,2.12,18,18,0,0,1-4.95,1.77l-6.35,1.06a50.21,50.21,0,0,1-6.36,2.12,49.71,49.71,0,0,0-6.36,2.12,20.69,20.69,0,0,1-12,.7,55.63,55.63,0,0,0-12-1.41l9.18-13.43,1.41-1.41a30.46,30.46,0,0,0,8.84-12.72,120,120,0,0,1,6-14.13,19,19,0,0,1,3.53-4.94,28.71,28.71,0,0,0,3.54-4.24l3.53-3.53q1.41-2.82,2.83-5.3c.93-1.65,1.87-3.41,2.82-5.3A22.52,22.52,0,0,0,3653,361a35.21,35.21,0,0,1,1.42-4.59c.46-1.17,1.87-1.53,4.24-1.06.46.47,1.17.47,2.12,0a8.34,8.34,0,0,0,2.12-1.42C3666.15,349.73,3669.21,345.39,3672,340.9Zm-10.95-95c1.17-1.42,2.23-2.59,3.18-3.54a2.1,2.1,0,0,1,1.41.71,7.07,7.07,0,0,0-.7,3.18,4.4,4.4,0,0,1-1.42,3.18,2.25,2.25,0,0,1-2.12,1.41,6.2,6.2,0,0,0-2.82.71,2.83,2.83,0,0,1-.71-2.12Q3659.32,248,3661.09,245.88Zm-12.72,9.53a13.1,13.1,0,0,1,3.18-2.47,3.51,3.51,0,0,1,1.77.71,20.29,20.29,0,0,0,2.47,1.41,8.79,8.79,0,0,1,2.12,1.41c-.95,1.89-1.77,3.43-2.47,4.6s-1.54,2.47-2.48,3.88a1.24,1.24,0,0,1-1.41-1.41,42.94,42.94,0,0,1-6.36-5Zm-2.47,8.13a1.65,1.65,0,0,1,1.77,1.19,3.39,3.39,0,0,0,1.76,2q-2.83,3.18-4.24,3.18a4,4,0,0,1-2.82.35,12,12,0,0,0-2.83-.35c.46,1.41.82,2.59,1.06,3.53a13.37,13.37,0,0,0,1.06,2.83,72.37,72.37,0,0,0-7.07-4.24Q3638.84,262.84,3645.9,263.54Zm-92.2,156.14c-.25,0-.36.24-.36.71-3.3-1.88-4.94-3.06-4.94-3.53a3,3,0,0,1,0-2.83,6.39,6.39,0,0,0,.7-2.83,2.93,2.93,0,0,1,2.12.71,56.91,56.91,0,0,1,2.83,7.06C3554.05,419.45,3553.93,419.68,3553.7,419.68Zm-3.18-11.3L3549.1,407c2.36-3.76,4.48-7.42,6.36-10.95s4-7.17,6.36-10.95a1.47,1.47,0,0,1,1.06.35,1.38,1.38,0,0,0,1.06.36,4,4,0,0,0-.35,2.82,2.14,2.14,0,0,1-.35,2.12q-7.08,5.67-1.42,11.31-3.54,2.12-6,3.53T3550.52,408.38Zm13.77,56.87c-.24,2.6-1.05,4.36-2.47,5.3,0,.48-.7.71-2.12.71a3.27,3.27,0,0,0-.35-1.42,3,3,0,0,1-.35-1.41,42,42,0,0,0,2.12-4.94,36.19,36.19,0,0,1,2.12-4.95A12.38,12.38,0,0,1,3564.29,465.25Zm1.07-82.66a13.47,13.47,0,0,1-3.54-2.47q15.54-27.56,31.8-54.41a260.59,260.59,0,0,1,38.86-49.45q7.76,3.54,2.82,9.18c-1.41,1.89-2.82,3.78-4.24,5.65a24.65,24.65,0,0,1-4.94,5,40.15,40.15,0,0,1-8.48,6.36c.46,1.41,1.17,4.48,2.12,9.18a38.31,38.31,0,0,1-7.77,6c-2.83,1.65-4.49,4.83-4.95,9.54-.47.95-1.77,1.88-3.89,2.82s-4.12,1.89-6,2.83l-4.24,2.12q3.53,6.36,2.47,7.77c-.7.95-3.18,2.36-7.42,4.24a11.39,11.39,0,0,0-4.59,4.24q-1.77,2.84-3.18,5.65c.94.95,1.65,1.41,2.12,1.41a19.84,19.84,0,0,0,1.06-2.47,19,19,0,0,1,1.06-2.47c1.41-1.42,2.58-2.12,3.53-2.12q.7-.7,1.77,0c.71.47,1.06,1,1.06,1.41a8.06,8.06,0,0,1-1.06,1.77,7.88,7.88,0,0,0-1.06,1.76c-1.89,2.37-3.65,4.6-5.3,6.72a73.15,73.15,0,0,1-6,6.71,7.67,7.67,0,0,1-1.77-1.06,8.62,8.62,0,0,0-1.77-1.06,30.55,30.55,0,0,0,.36,4.59,6.71,6.71,0,0,1-.36,3.89,24.49,24.49,0,0,1-1.76,4.94,39.53,39.53,0,0,1-2.48,4.24A38.62,38.62,0,0,0,3565.36,382.59Zm9.53,54.75a104.23,104.23,0,0,1-6,12.72h-2.12c0-3.76.46-6.36,1.41-7.77a88.74,88.74,0,0,1,4.59-8.12,37,37,0,0,0,3.89-8.13c0-.94.94-1.88,2.83-2.83a1.25,1.25,0,0,0,1.41,1.42A103.43,103.43,0,0,0,3574.89,437.34Z" transform="translate(1365.91 228.83)"/><path class="cls-1" d="M4211.12,148.37a6.47,6.47,0,0,0,.7-4.94q-3.54-7.05-8.48-14.84a88.24,88.24,0,0,0-16.25-19.43q-9.18-8.11-24.72-6.71a4,4,0,0,1-2.83-1.41q-4.24-2.82-8.13-5.3a88.74,88.74,0,0,0-8.12-4.59Q4127,82,4112.91,94.68q-5.67,5.66-11.66,12t-11.66,12.72l-78.42,84.78a181.78,181.78,0,0,0-12,14.84l-11.31,15.54q-6.36,7.78-12.71,14.48a147.4,147.4,0,0,0-12,14.49q-7.07,9.19-13.77,18t-13.07,18a93.59,93.59,0,0,0-9.54,16.25,20.87,20.87,0,0,0-1.86,8.93c-3.43,4.19-6.82,8.39-10.15,12.65q-7.41,9.51-15.19,19.4a6.18,6.18,0,0,0-1.76,2.83,6.34,6.34,0,0,1-1.77,2.82l1.41,1.42a355.56,355.56,0,0,0,26.14-30.74c.67-.88,1.33-1.78,2-2.66a36.92,36.92,0,0,0,1.53,5.13q1,2.41,1.9,4.89c-.66.7-1.29,1.43-1.89,2.18a90.2,90.2,0,0,0-6.36,10.24q-2.84,5.31-6.36,11c-2.36,2.82-4.59,5.54-6.71,8.12s-4.36,5.3-6.71,8.13a84.7,84.7,0,0,1-7.78,8.12,83.47,83.47,0,0,0-7.77,8.13c-1.89,1.41-3.65,2.82-5.3,4.23s-3.18,2.83-4.59,4.24a12.66,12.66,0,0,0-3.53,3.54,23.81,23.81,0,0,1-2.83,3.53c-3.3,2.36-4.94,3.88-4.94,4.59s1.41,2.47,4.24,5.3q4.93-2.82,9.53-5.3t6-8.83l2.12-2.12a40.27,40.27,0,0,1,6.36-6.36,15.54,15.54,0,0,0,4.94-6.36,36.55,36.55,0,0,1,6-7.06q3.18-2.82,6.71-6.36a47.33,47.33,0,0,1,8.13-9.89,48.51,48.51,0,0,0,8.12-9.89,22.2,22.2,0,0,0,2.47-5.3,45.39,45.39,0,0,1,2.43-5.91,78.35,78.35,0,0,1,1.45,8,113.8,113.8,0,0,0,5,21.55,14.14,14.14,0,0,0,3.53,6.71,14.37,14.37,0,0,1,3.53,6.71,35.33,35.33,0,0,0,9.54,21.2A165.64,165.64,0,0,1,3969.48,431a120.46,120.46,0,0,0,19.43,21.54q11,9.54,22.26,19.43,12,9.92,24,19.43t24,19.43a24.47,24.47,0,0,1,3.54,2.83,38.88,38.88,0,0,0,4.23,3.53,28.28,28.28,0,0,1-5.65,1.77,12.73,12.73,0,0,0-3.53,1.06,86.11,86.11,0,0,1-10.6.7,71.4,71.4,0,0,0-9.89.71q-18.37,2.12-35.68,4.59t-35,3.89q-21.91.71-43.81,0-12-1.41-23.31-2.47T3876.22,525a121.17,121.17,0,0,0-13.07-2.12,112.36,112.36,0,0,1-13.07-2.12c-2.35-.93-4.7-2-7.07-3.17s-4.7-2.48-7.06-3.89a37.3,37.3,0,0,0,7.77,13.78,45.78,45.78,0,0,0,11.31,8.83q9.9,5.65,18.72,11.3t18,12a55.38,55.38,0,0,0,22.25,10.6,55.88,55.88,0,0,1,22.26,10.6,4.06,4.06,0,0,0,2.82.71,99.75,99.75,0,0,0,11,2.12c3.54.47,7.18.94,10.95,1.41a19.87,19.87,0,0,0,6.36.35,13,13,0,0,1,6.36,1.06q5.66,1.43,11.66,3.18a73,73,0,0,0,11.66,2.47,91.35,91.35,0,0,0,13.78.36q6.7-.37,13.77-1.06l55.11-4.24a30.65,30.65,0,0,0,4.59-.36,4.38,4.38,0,0,1,3.89,1.06c5.65,3.31,11.3,4.12,17,2.48a60.21,60.21,0,0,1,16.95-2.48,125.73,125.73,0,0,0,23.32-2.12,197.11,197.11,0,0,0,22.61-5.65,14.79,14.79,0,0,0,6.36-5.3,60.9,60.9,0,0,1,6.36-7.41c.93-.94.7-2.12-.71-3.54q-3.54-5.64-7.07-11.65a45,45,0,0,0-9.18-11q-10.6-9.16-21.9-17.66t-23.32-16.25Q4101.61,496,4084.29,485t-35-22.26a299.43,299.43,0,0,1-25.43-19.43,187.54,187.54,0,0,1-22.61-23,62.34,62.34,0,0,0-14.13-12.72,29.62,29.62,0,0,1-8.84-13.78,19.87,19.87,0,0,1,1.77-15.89q7.77-12,15.19-23t15.19-23l8.48-12.72q4.24-6.35,7.77-12a40.93,40.93,0,0,0,9.19-7.77q4.23-4.23,8.12-8.83t8.13-8.83a18.39,18.39,0,0,1,3.88-2.83,11.38,11.38,0,0,0,3.89-3.53q7.77-9.18,15.9-18.37t15.89-18.37a16.54,16.54,0,0,0,2.48-3.18,16.32,16.32,0,0,1,2.47-3.18,62.28,62.28,0,0,1,7.42-6.36c2.58-1.87,5.53-4.24,8.83-7.06a40.13,40.13,0,0,0-1.41,9.54,19.78,19.78,0,0,1-1.42,7.41q-5.65,14.15-10.95,28.27t-11.66,28.26q-6.36,16.26-11.3,32.85a165.12,165.12,0,0,0-6.36,33.56q-.7,8.47-1.06,16.25a54.29,54.29,0,0,0,1.41,15.19,38.34,38.34,0,0,0,6.36,13.78q4.59,6.36,14.49,10.6,8.47,3.54,7.06-3.54a16.15,16.15,0,0,1,.71-10.6c1.41-3.28,2.82-6.59,4.24-9.89q2.81-6.36,6-13.07a121,121,0,0,1,6.71-12.36,66.92,66.92,0,0,0,6-12.37q2.46-6.71,5.3-13.07a135.88,135.88,0,0,0,6.36-13.07,20.46,20.46,0,0,1,9.18-10.24,18.78,18.78,0,0,0,3.54-4.95q3.53-9.88,7.41-19.78t8.13-19.78q5.64-12.72,10.95-25.44t11-24.73c0-2.35.71-3.53,2.12-3.53,2.35,0,3.77-.71,4.24-2.12a36.13,36.13,0,0,1,2.12-4.94,97.58,97.58,0,0,0,7.42-19.79,67.18,67.18,0,0,1,8.12-19.07l1.42-3.54q-3.56-5.64-1.06-10.59A32.64,32.64,0,0,0,4211.12,148.37Z" transform="translate(1365.91 228.83)"/></svg>